<svg xmlns="http://www.w3.org/2000/svg" width="31" height="16" fill="none">
  <path fill="inherit" d="M.031743 8.05971v.01828c-.016144.05483-.032288.10966-.032288.16448 0 .05483.000002.10966.032288.16449v.03655c.016143.05483.048427.09138.080715.12793H.1286s.032287.03655.048431.05483L9.68533 15.9184c.19372.1462.45197.0914.58117-.1279.1291-.2193.0807-.5118-.113-.658L1.79134 8.7542 30.51 8.75421c.226 0 .4197-.21932.4197-.47518s-.1937-.47518-.4197-.47518H1.67834L9.83062.85897c.19368-.164484.22598-.456899.08072-.676211-.08072-.127932-.20986-.182761-.33901-.182761-.08071 0-.17757.036552-.25829.09138L.144744 7.89523s-.016144.01828-.032286.03655c0 0-.000002 0-.016144.01828-.032287.03655-.064571.09138-.080715.12793l.016144-.01828Z"/>
</svg>
