<svg version="1.1" xmlns="http://www.w3.org/2000/svg" role="img" aria-labelledby="logoTitle" x="0px" y="0px" viewBox="0 0 121 32" fill="currentColor">
    <title id="logoTitle">Engage</title>
    <path d="M18.4,24.1H0.5v-24h17.8v6.1H7.6v3.2h9.5v5.4H7.6V18h10.8V24.1z"/>
    <path id="n-s" d="M18.4,8.6l9-3.2v3.4h0.4c1.5-1.6,3.4-3,5.9-3c3.3,0,5.4,2.5,5.4,5.7V22h1.8v2.1H30.7V22h1.8v-8.9  c0-2.3-1.1-3.7-3.4-3.7c-0.6,0-1.2,0.1-1.7,0.2V22h1.7v2.1H19V22h1.8V11.3L18.4,8.6z"/>
    <path id="n" d="M27.7,9.3c0.9-2.6,3.1-3.9,5.7-3.9c3.3,0,5.8,2,5.8,6v12.8H32V13.8c0-1.5-0.4-2.4-1.8-2.4c-1.3,0-2.3,0.9-2.3,3.2  v9.6h-7.3V5.8h6.4L27.7,9.3z"/>
    <path d="M49.1,31.7c-4.3,0-9.1-1-9.1-4.3c0-1.8,1.6-2.9,3.9-3.2c-1.6-0.4-2.9-1.7-2.9-3.7c0-2,1.6-3.5,3.6-3.9c-2.1-1-3.5-2.6-3.5-5  c0-4.1,3.6-6.2,8.8-6.2c1.8,0,3.5,0.3,4.8,0.9c0.4-0.7,0.8-1.8,0.8-3L61,5.1c-0.3,1.9-1.9,3-3.5,3.3c0.7,0.9,1.1,1.9,1.1,3.1  c0,4.2-4,6-8.9,6c-0.9,0-1.8-0.1-2.7-0.2c-0.4,0.1-0.6,0.4-0.6,0.8c0,0.5,0.4,0.7,1,0.7h4.8c5.6,0,8.1,2,8.1,5.7  C60.4,29.8,54.7,31.7,49.1,31.7z M49.4,27.5c3,0,4.7-0.5,4.7-1.5c0-0.8-0.8-1-1.9-1h-5.2c-0.9,0-1.5,0.3-1.5,1  C45.6,27,46.8,27.5,49.4,27.5z M49.8,13.7c1.1,0,1.7-0.8,1.7-2.2c0-1.4-0.6-2.2-1.7-2.2c-1.2,0-1.7,0.8-1.7,2.2  C48.1,12.8,48.6,13.7,49.8,13.7z"/>
    <path d="M84,20l-1,1.1c-1.4,1.6-2.5,2.8-3.4,3.5s-1.9,1.1-2.9,1.1s-1.8-0.3-2.3-0.9s-0.7-1.6-0.7-3.1c0-0.2,0-0.4,0-0.6s0-0.3,0-0.5  h-0.2c-0.9,1.6-2,2.8-3.3,3.8s-2.9,1.4-4.7,1.4c-1.5,0-2.8-0.3-3.7-1s-1.4-1.7-1.4-2.9c0-1.5,0.7-2.8,2.1-4s3.3-2.2,5.6-3.1l5.3-1.8  c0-1.8-0.3-3.1-1-4S71,7.6,70,7.6c-0.7,0-1.3,0.2-1.8,0.5s-0.7,1-0.7,1.8c0,0.5,0.1,1,0.2,1.6s0.3,1.2,0.6,1.9l-8.2,2l-0.1-0.2  c0.8-1.4,1.6-2.6,2.5-3.7s1.9-2,2.9-2.7c1-0.7,2-1.2,2.9-1.7s1.8-0.8,2.5-1c0.8-0.2,1.5-0.3,2.1-0.4s1.1-0.1,1.4-0.1  c2.7,0,4.6,0.5,5.4,1.6S81,9.4,81,11.3c0,0.4,0,0.9,0,1.3s-0.1,0.9-0.1,1.4l-0.4,6.6v0.5l3.3-1.4L84,20z M73.4,13.9  c-1.8,1-3.2,1.9-4.1,2.9s-1.4,1.9-1.4,2.7c0,0.7,0.2,1.2,0.7,1.5s0.9,0.5,1.3,0.5c0.5,0,1.1-0.2,1.8-0.5s1.3-0.8,1.7-1.5L73.4,13.9z  "/>
    <path id="g-s" d="M96.8,18.1c3.8,0,6.6,1.6,6.6,4.9c0,5.4-6.3,8.9-12.4,8.9c-4.3,0-8.6-1.4-8.6-4.4c0-2.3,2.9-3.4,5.4-3.8v-0.3  c-1.7-0.5-3.5-1.8-3.5-3.9c0-2,1.6-3.5,4-4.5c-2.5-1-4.3-2.9-4.3-5.2c0-3.4,3.9-6,8.2-6c2.4,0,4.7,0.8,6.2,2.1l4.7-2.9v4.7H100  c0.3,0.6,0.5,1.3,0.5,2.1c0,3.4-3.9,6-8.2,6c-1.2,0-2.3-0.2-3.4-0.6v2.9H96.8z M88.7,23.9c-0.7,0.5-1.2,1.4-1.2,2.6  c0,2.2,1.9,3.6,5,3.6c3.1,0,5.9-1.6,5.9-3.8c0-1.7-1.4-2.4-3.6-2.4H88.7z M92.3,14.5c1.1,0,2-2.1,2-4.8c0-2.7-0.9-4.8-2-4.8  s-2,2.1-2,4.8C90.3,12.4,91.2,14.5,92.3,14.5z"/>
    <path id="g" d="M92.3,31.7c-4.3,0-9.1-1-9.1-4.3c0-1.8,1.6-2.9,3.9-3.2c-1.6-0.4-2.9-1.7-2.9-3.7c0-2,1.6-3.5,3.6-3.9  c-2.1-1-3.5-2.6-3.5-5c0-4.1,3.6-6.2,8.8-6.2c1.8,0,3.5,0.3,4.8,0.9c0.4-0.7,0.8-1.8,0.8-3l5.6,1.8c-0.3,1.9-1.9,3-3.5,3.3  c0.7,0.9,1.1,1.9,1.1,3.1c0,4.2-4,6-8.9,6c-0.9,0-1.8-0.1-2.7-0.2c-0.4,0.1-0.6,0.4-0.6,0.8c0,0.5,0.4,0.7,1,0.7h4.8  c5.6,0,8.1,2,8.1,5.7C103.6,29.8,98,31.7,92.3,31.7z M92.6,27.5c3,0,4.7-0.5,4.7-1.5c0-0.8-0.8-1-1.9-1h-5.2c-0.9,0-1.5,0.3-1.5,1  C88.8,27,90,27.5,92.6,27.5z M93,13.7c1.1,0,1.7-0.8,1.7-2.2c0-1.4-0.6-2.2-1.7-2.2c-1.2,0-1.7,0.8-1.7,2.2  C91.3,12.8,91.8,13.7,93,13.7z"/>
    <path id="e" d="M114,17.3l5.8,2.1c-1.3,3.6-4.8,5.2-8.4,5.2c-5.8,0-9.5-3.6-9.5-9.4c0-5.9,3.6-9.8,9.6-9.8c5.7,0,8.4,3.9,8.4,8.4  c0,0.7-0.1,1.8-0.3,2.4h-10.7c0,2,1.2,3.1,2.7,3.1C112.8,19.3,113.6,18.7,114,17.3z M113.3,13.1c0.1-0.2,0.1-0.5,0.1-0.8  c0-1-0.6-1.9-1.9-1.9c-1.4,0-2.4,1.1-2.5,2.7H113.3z"/>
    <path id="e-s" d="M114.7,14.9c-0.1,0-0.2,0.1-0.3,0.1s-0.2,0-0.3,0l-5.3,0.1c0.5,3.2,2.2,4.9,5.1,5.1s5-0.9,6.3-3.3l0.2,0.1  c-0.4,1.8-0.9,3.3-1.5,4.5s-0.9,1.9-1.1,2.1c-0.6,0.5-1.4,1-2.2,1.3s-1.7,0.6-2.5,0.7c-2.6,0.4-4.9-0.2-7.1-1.8s-3.4-3.8-3.8-6.6  c-0.1-1.2-0.1-2.3,0-3.4s0.5-2.2,1.2-3.3c1-1.8,2.3-3.1,4-3.9s3.4-1.3,5.2-1.3c1.1,0,2.2,0.2,3.3,0.6s2,1,2.7,1.8  c0.5,0.6,1,1.2,1.3,1.8s0.6,1.3,0.8,2.1v0.3v0.3c0,0.1,0,0.2-0.1,0.3l-0.2,0.1l-1.6,0.7L114.7,14.9z M108.7,14.5h5.1  c0-1.1-0.1-2-0.2-2.9s-0.4-1.7-0.8-2.5c-0.3-0.5-0.7-1-1.2-1.3s-1-0.4-1.6,0c-0.3,0.1-0.5,0.4-0.7,0.7s-0.3,0.6-0.4,0.9  c-0.2,0.9-0.4,1.7-0.4,2.6S108.6,13.6,108.7,14.5z"/>
</svg>