<svg xmlns="http://www.w3.org/2000/svg" width="89" height="409" fill="none">
  <path fill="#fff" d="M14.5531 127.604c-2.5094 1.134-3.7289 3.347-3.7289 6.766 0 3.522 1.1342 6.15 3.6765 8.521l1.497 1.397h-4.2755v10.169h26.7571V144H24.6785c-.9415 0-2.6811-.102-3.7663-.797-.9415-.624-1.4182-1.584-1.4182-2.855 0-1.344.4842-2.273 1.4082-2.743.6524-.37 1.5909-.534 3.0425-.534h14.5351v-10.429H21.2746c-2.166 0-4.8875.109-6.7215.962Zm0 68.938c-2.5094 1.134-3.7289 3.347-3.7289 6.766 0 3.521 1.1341 6.149 3.6765 8.521l1.497 1.396H1.16504v10.169H38.4798v-10.457H24.679c-.9415 0-2.6801-.102-3.7664-.796-.9414-.624-1.4181-1.585-1.4181-2.855 0-1.345.4842-2.274 1.4082-2.744.6524-.369 1.5908-.534 3.0425-.534h14.5351V195.58H21.275c-2.1659 0-4.8879.109-6.7219.962ZM1.1665 261.041v10.69h37.3133v-10.69H1.1665Zm10.5522-104.793.0001 10.69 26.761-.001v-10.689H11.7187Zm0 148.695.0001 10.69h26.761v-10.69H11.7187Zm-1.3232 54.03c0 9.461 5.6373 15.339 14.7134 15.339s14.2186-5.455 14.2186-14.966c0-4.623-1.476-8.642-4.1561-11.317-2.459-2.453-5.7856-3.691-9.8888-3.68-9.5998 0-14.8871 5.194-14.8871 14.624Zm21.3315.199c0 1.347-.6959 4.477-7.1418 4.477-5.7585 0-6.6181-2.805-6.6181-4.477 0-2.78 2.3441-4.19 6.9671-4.19 5.6147 0 6.7928 2.279 6.7928 4.19Zm-.838-87.046 1.9603 4.465h-.7737l-9.2848-.543c-1.3927-.12-2.734-.18-4.0234-.18-5.3128 0-8.3563 1.689-8.3563 9.11 0 1.026.2581 2.655.8252 4.767.5675 2.172 1.9083 4.646 3.92 7.421 2.0632 2.776 5.0548 5.249 8.9753 7.361l.3095-.18-2.7335-11.163c-1.9603.724-3.6106 1.086-5.0033 1.086-2.2179 0-3.3011-1.387-3.3011-3.378 0-2.715 2.6876-4.736 7.7942-4.736l2.5274 7.33c2.5273 6.336 5.8229 10.499 10.1558 10.499 3.3525 0 5.519-2.836 5.519-6.999 0-4.887-2.7855-8.537-7.2731-10.89v-.302c.3609.06.8251.06 1.496.06 4.1782 0 5.7251-1.116 5.7251-4.012 0-2.896-1.9083-4.827-6.6021-8.628l-1.5989-1.327-.2581.241.0005-.002Zm-.5156 14.149c1.8569 1.147 2.7854 3.409 2.7854 4.796 0 1.267-.9285 2.655-2.8368 2.655-2.2698 0-5.1012-2.685-7.938-7.572l7.9894.121ZM2.88623 305.823v8.931c0 .483.39178.875.87506.875h4.25602c.48329 0 .87506-.392.87506-.875v-8.931c0-.483-.39178-.875-.87506-.875H3.76129c-.48328 0-.87506.392-.87506.875Zm0-148.696v8.931c0 .483.39178.875.87506.875h4.25602c.48329 0 .87506-.392.87506-.875v-8.931c0-.484-.39178-.876-.87506-.876H3.76129c-.48328 0-.87506.392-.87506.876ZM22.991 375.379c-1.1272.436-2.1475 1.142-3.032 2.101-.9076.98-1.7043 2.284-2.3692 3.873-.6823 1.632-1.2784 3.649-1.7706 5.989l-1.0847 5.333c-.317 1.548-.7068 2.595-1.1885 3.2-.5471.69-1.2904 1.055-2.149 1.055-.9824 0-1.829-.464-2.44798-1.343-.57306-.813-.8516-2.037-.8516-3.741 0-1.567.31248-2.815.92947-3.708.54561-.789 1.45211-1.386 2.70061-1.779v-10.836s-4.74076-.092-8.08228 4.029c-.16373.201-.32097.416-.47422.635-.0015.003-.00349.005-.00499.007-.09934.143-.19768.288-.29252.439-.00649.01-.01348.019-.01997.03-.59203.935-1.04528 1.951-1.39471 2.973l-.02097.06c-.06189.184-.1213.367-.17671.551-.01397.046-.02995.09-.04392.137-.02846.094-.05242.194-.07937.291-.004.015-.00849.031-.01248.046-.07188.261-.138775.528-.201173.802-.012479.053-.02396.106-.035941.159-.024959.114-.050916.228-.074378.345-.604008 2.951-.483207 5.43-.483207 5.43.000001 2.513.264567 4.81.786209 6.825.51316 1.981 1.29038 3.681 2.30771 5.055 1.00386 1.355 2.24882 2.414 3.70093 3.149 1.45062.735 3.16129 1.108 5.08419 1.108 2.9716 0 5.2778-.941 7.0504-2.877 1.8055-1.971 3.1618-5.232 4.0309-9.689l1.0333-5.403c.321-1.521.7343-2.557 1.2644-3.167.5831-.673 1.3932-1.028 2.3432-1.028 1.202 0 2.1734.497 2.8094 1.438.5855.866.8695 2.131.8695 3.868 0 2.105-.4432 3.724-1.3163 4.81-.7588.944-1.809 1.583-3.1289 1.907v10.897c1.6937-.193 3.2517-.601 4.6419-1.215 1.5914-.704 2.9602-1.74 4.0693-3.082 1.1172-1.353 1.9868-3.078 2.5853-5.127.6075-2.087.916-4.581.916-7.413 0-5.568-1.1022-9.823-3.2751-12.645-2.1545-2.797-5.1281-4.157-9.0931-4.157-1.5175 0-2.8698.225-4.0199.668h.001Zm5.5647-49.492c.8077.172 1.4766.472 1.9952.895.7398.603 1.1147 1.486 1.1147 2.624 0 1.382-.6015 2.491-1.7387 3.209-1.0492.664-2.707.986-5.0682.986-2.2433 0-3.8511-.31-4.9159-.948-1.1666-.698-1.7831-1.802-1.7831-3.191 0-1.105.359-1.952 1.0668-2.519.4642-.371 1.0573-.654 1.7681-.843v-9.488s-1.813.098-3.972 1.035c-1.2654.55-2.4026 1.325-3.3799 2.303-.965.967-1.7467 2.26-2.3212 3.844-.5841 1.609-.8801 3.572-.8801 5.835 0 4.456 1.2869 7.981 3.8237 10.479 2.5424 2.501 6.1979 3.768 10.8657 3.768 2.0901 0 4.0444-.286 5.8115-.851 1.7326-.553 3.2357-1.417 4.4686-2.571 1.2325-1.151 2.2119-2.631 2.9108-4.4.7043-1.786 1.0617-3.93 1.0617-6.37 0-2.264-.296-4.227-.879-5.835-.5746-1.585-1.3853-2.917-2.4096-3.959-1.0248-1.045-2.2663-1.872-3.6869-2.458-1.1926-.491-2.485-.844-3.8522-1.052v9.508-.001ZM12.956 171.179c-1.6482 1.824-2.5937 5.282-2.5937 9.487 0 12.072 6.8118 12.618 9.5354 12.908v-8.788c-1.8964-.422-2.8559-1.563-2.8559-3.4 0-2.105 1.1002-3.172 3.2707-3.172h1.6692l.1134.968c.3369 2.894.8995 7.738 2.4769 11.068 1.4806 3.17 3.5242 4.523 6.8323 4.523 4.9324 0 7.8771-2.89 7.8771-7.731 0-3.67-1.0289-6.032-3.4409-7.898l-1.5574-1.206 4.1966-.508v-8.711H21.209c-4.3663 0-6.679.688-8.253 2.46Zm14.6949 7.035c3.076 0 5.0637 1.791 5.0637 4.561 0 1.871-1.3048 2.709-2.5982 2.709-1.3932 0-2.0751-.773-2.4041-1.428-.5276-1.075-1.0073-2.967-1.2529-4.936l-.1133-.906h1.3048Zm1.2632 58.828c.9873 1.075 1.487 2.491 1.487 4.212 0 .897-.1407 1.785-.4188 2.638-.3005.924-.879 1.742-1.7192 2.429-.8076.662-1.9208 1.191-3.3065 1.571-1.3194.363-3.043.548-5.1196.555-2.0766-.007-3.8003-.192-5.1196-.555-1.3863-.38-2.4994-.909-3.3066-1.571-.8401-.687-1.41818-1.505-1.71919-2.429-.27805-.853-.41881-1.741-.41881-2.638 0-1.721.49968-3.137 1.4871-4.212.8565-.934 2.105-1.561 3.7174-1.866v-11c-1.8231.166-3.5437.574-5.12563 1.216-1.79855.73-3.38096 1.814-4.70329 3.221-1.32732 1.413-2.39207 3.207-3.1653 5.334-.776228 2.143-1.170581 4.714-1.170581 7.639 0 3.252.473224 6.085 1.406691 8.423.92498 2.317 2.23084 4.243 3.88313 5.725 1.65678 1.489 3.67197 2.609 5.99018 3.33 2.3506.732 4.9788 1.103 7.8107 1.103.1457 0 .289-.005.4338-.007.1447.002.288.007.4338.007 2.8323 0 5.4605-.371 7.8106-1.103 2.3182-.721 4.3329-1.841 5.9902-3.33 1.6523-1.482 2.9581-3.408 3.8831-5.725.9335-2.338 1.4067-5.171 1.4067-8.423 0-2.926-.3943-5.496-1.1706-7.639-.7732-2.127-1.8379-3.921-3.1653-5.334-1.3223-1.407-2.9047-2.491-4.7032-3.221-1.5819-.642-3.3026-1.05-5.1256-1.216v11c1.6128.305 2.8613.932 3.7174 1.866ZM52.071 127.513h35.2841v18.063c0 4.807-.3743 7.808-1.1855 9.46-1.2594 2.712-3.984 4.331-7.2885 4.331-3.6905 0-5.9483-1.647-7.5487-5.508l-.9115-2.197-.5116 2.323c-.9594 4.358-3.5851 6.477-8.0279 6.477-3.1967 0-6.0475-1.432-7.8231-3.932-1.4307-1.995-1.9878-4.905-1.9878-10.379l.0005-18.638Zm14.1339 17.269v-6.336h-6.0816v6.281c0 2.982.926 4.253 3.0955 4.253 2.6766 0 2.9861-2.396 2.9861-4.199m13.1244.055v-6.39h-5.6178v6.336c0 1.532.2985 3.569 2.8773 3.569 1.8185 0 2.7405-1.182 2.7405-3.514m-28.0075-18.073v19.387c0 5.422.5186 8.57 2.1285 10.816 1.8285 2.573 4.8296 4.244 8.4316 4.244 4.7478 0 7.7219-2.355 8.7587-7.065 1.828 4.409 4.5295 5.969 8.2405 5.969 3.7383 0 6.658-1.944 7.9674-4.764.9549-1.944 1.2549-5.34 1.2549-9.776v-18.811H51.3218Zm14.1343 18.018c0 2.601-.7368 3.45-2.2373 3.45-1.3648 0-2.3467-.465-2.3467-3.505v-5.531h4.584v5.586Zm13.1245.055c0 2.026-.6819 2.765-1.9918 2.765-1.3368 0-2.1285-.575-2.1285-2.82v-5.586h4.1203v5.641Zm-26.4822 18.054h26.0068v9.756h-5.8634l2.448 1.4c2.3781 1.359 3.7978 3.716 3.7978 6.304 0 .556-.0255.907-.1618 1.497h-8.4306c.2571-.807.3489-1.511.3489-2.455 0-2.099-.627-3.716-1.8564-4.799-1.3389-1.213-2.9976-1.426-5.9872-1.426H52.0984v-10.277Zm-.7488-.749v11.775h11.0509c2.9197 0 4.3658.219 5.4845 1.232 1.1186.986 1.6098 2.464 1.6098 4.244 0 1.178-.1362 1.917-.6823 3.204h10.0959c.273-1.014.3274-1.452.3274-2.246 0-3.149-1.8279-5.613-4.1746-6.954h3.7928v-11.255H51.3496Zm.7024 56.813 26.0068-8.388v11.021l-2.3661.527c-4.4422.991-9.0362 2.015-13.6296 2.983l-3.8068.801 3.8322.67c4.5965.803 7.8696 1.593 13.2912 2.903.8392.203 1.7277.418 2.6786.646v10.384l-26.0068-8.13v-13.416m-.7488-.545v14.512l27.5044 8.598v-11.994c-7.4218-1.78-11.1053-2.738-16.5903-3.696 5.5938-1.178 11.0509-2.41 16.5903-3.642v-12.65l-27.5044 8.872Zm.1399 35.902c0-9.264 4.913-14.365 13.8333-14.365 8.4037 0 13.8333 5.38 13.8333 13.708 0 9.168-5.2219 13.921-15.524 14.139v-17.572l-.8022.057c-3.979.285-4.4087 3.011-4.4087 4.17 0 1.026.3693 2.757 2.6791 3.535l-2.6786 8.765c-4.601-2.611-6.9322-6.791-6.9322-12.437Zm21.358.055c0-1.297-.4947-3.548-3.8073-4.054l-.8616-.131v8.182l.8646-.136c2.4176-.378 3.8043-1.785 3.8043-3.861Zm-22.1072-.055c0 6.955 3.334 11.117 8.1311 13.527l3.1713-10.378c-2.141-.438-2.8728-1.67-2.8728-3.012 0-1.396.6505-3.203 3.7134-3.423v17.525c10.6521 0 17.0216-4.655 17.0216-14.896 0-8.625-5.7191-14.458-14.5821-14.458-9.2153 0-14.5825 5.367-14.5825 15.115Zm18.1871-3.258c2.3312.355 3.1713 1.697 3.1713 3.313 0 1.533-.8945 2.765-3.1713 3.121v-6.434Zm-16.8558 23.584h35.2841v18.063c0 4.807-.3744 7.808-1.1856 9.46-1.2594 2.712-3.984 4.331-7.2885 4.331-3.6905 0-5.9483-1.647-7.5486-5.508l-.9116-2.197-.5116 2.323c-.9594 4.358-3.5851 6.477-8.0278 6.477-3.1968 0-6.0476-1.432-7.8232-3.932-1.4307-1.995-1.9877-4.905-1.9877-10.379l.0005-18.638Zm14.1338 17.269v-6.335h-6.0816v6.28c0 2.982.926 4.254 3.0955 4.254 2.6766 0 2.9861-2.396 2.9861-4.199m13.1244.055v-6.39h-5.6177v6.335c0 1.532.298 3.569 2.8772 3.569 1.8185 0 2.7405-1.182 2.7405-3.514ZM51.2754 273.89v19.387c0 5.422.5186 8.57 2.1285 10.816 1.8285 2.574 4.8296 4.244 8.4317 4.244 4.7477 0 7.7218-2.355 8.7586-7.064 1.828 4.408 4.5296 5.969 8.2405 5.969 3.7383 0 6.658-1.944 7.9674-4.765.9549-1.944 1.2549-5.339 1.2549-9.775V273.89H51.2754Zm14.1343 18.018c0 2.601-.7368 3.45-2.2373 3.45-1.3648 0-2.3467-.466-2.3467-3.505v-5.531h4.584v5.586Zm13.1245.054c0 2.027-.6819 2.766-1.9918 2.766-1.3368 0-2.1285-.576-2.1285-2.821v-5.585h4.1203v5.64Zm-26.5096 18.055h25.325v10.112H52.0247l-.0001-10.112Zm29.4966 0h5.788v10.112h-5.788v-10.112Zm-30.2453-.749v11.61h26.8225v-11.61H51.2759Zm29.4966 0v11.61h7.2855v-11.61h-7.2855Zm-29.3298 24.89c0-4.705 1.6248-9.085 4.4791-12.136l5.2454 4.683c-2.0671 1.681-3.3615 4.317-3.3615 6.96 0 2.499 1.4237 2.694 1.8595 2.694 1.3637 0 1.9083-1.076 2.2902-2.228l1.4461-4.14c1.5919-4.679 3.9615-6.858 7.4573-6.858 5.3203 0 8.2505 4.266 8.2505 12.011 0 4.184-1.3438 8.153-3.708 11.015l-5.1086-4.526c1.7931-1.717 2.8419-3.858 2.8419-5.859 0-2.181-1.0718-2.639-1.9708-2.639-1.3403 0-1.7312 1.09-2.5104 3.262l-1.2784 3.561c-1.535 4.308-3.8841 6.403-7.1832 6.403-5.2339 0-8.7506-4.904-8.7506-12.203m-.7488 0c0 7.421 3.5551 12.952 9.4994 12.952 3.6385 0 6.2497-2.3 7.888-6.901l1.2779-3.559c.8057-2.245 1.0558-2.766 1.8056-2.766.6944 0 1.222.384 1.222 1.89 0 1.835-1.0553 4.08-3.2217 5.86l6.3051 5.586c2.75-2.985 4.3888-7.421 4.3888-12.076 0-9.2-3.972-12.76-8.9992-12.76-4.1941 0-6.6381 2.875-8.1661 7.366l-1.4441 4.135c-.4723 1.423-.9445 1.725-1.5834 1.725-.5831 0-1.1107-.493-1.1107-1.945 0-2.573 1.3612-5.339 3.8052-6.9l-6.4718-5.777c-3.4444 3.34-5.194 8.296-5.194 13.17h-.001Z"/>
  <path fill="#fff" d="M51.4426 361.897c0-9.094 4.9559-14.31 13.5977-14.31s14.0694 5.62 14.0694 14.666-5.0557 13.983-14.2376 13.983c-3.9216.011-7.1024-1.173-9.4545-3.52-2.5633-2.557-3.975-6.4-3.975-10.82m20.3956.166c0-1.588-.8182-4.254-6.2987-4.254-2.0441 0-6.7983.414-6.7983 4.254 0 3.29 3.5157 3.98 6.4653 3.98 4.4003 0 6.6317-1.339 6.6317-3.98Zm-21.1443-.166c0 7.916 4.4397 15.116 14.1797 15.089 9.5179 0 14.9844-5.313 14.9844-14.732 0-9.365-5.5499-15.416-14.8182-15.416-9.157 0-14.3464 5.64-14.3464 15.06l.0005-.001Zm20.3955.166c0 1.943-1.5819 3.231-5.8829 3.231-4.0793 0-5.7166-1.233-5.7166-3.231 0-2.055 1.8041-3.505 6.0496-3.505 4.0234 0 5.5499 1.505 5.5499 3.505Zm-19.0184 16.63h26.0293v9.727h-4.5131l1.3908 1.297c2.427 2.263 3.5092 4.771 3.5092 8.132 0 3.266-1.1656 5.38-3.5711 6.468-1.7437.811-4.3389.915-6.405.915H52.097l-.0245-9.975h13.8947c1.3678 0 2.2558-.154 2.8743-.499.8936-.461 1.3468-1.338 1.3468-2.605 0-1.203-.4517-2.113-1.3538-2.711-1.0188-.651-2.6726-.749-3.5671-.749H52.0705v-10.001m-.7487-.749v11.499h13.9456c1.3443 0 2.5204.22 3.1643.631.6999.465 1.0083 1.151 1.0083 2.08 0 .905-.252 1.589-.9519 1.945-.5321.301-1.4002.41-2.5204.41H51.3223l.0279 11.473h17.1609c2.6601 0 5.0122-.19 6.7204-.985 2.6043-1.177 4.0045-3.531 4.0045-7.147 0-3.779-1.3393-6.435-3.7474-8.681h3.3605v-11.225H51.3218Zm.1208-189.073c0-3.82 1.885-6.289 4.8017-6.289 3.6425 0 6.8422 3.388 9.5109 10.07l1.8265 5.298c-3.4129-5.371-6.0776-6.551-7.7588-6.551-2.3392 0-3.6016 1.761-3.6016 3.419 0 1.185.5366 2.754 1.555 4.025-4.1472-2.366-6.3337-5.802-6.3337-9.972Zm.052 15.23c0-2.132.7982-3.286 5.0087-3.286.6265 0 1.0793 0 1.3813.05l.872.146v-1.175c.1962.16.4039.308.6215.443l.1757.108.2062.003 8.0343.122 1.3233.02-.0119-.02c6.2492-.032 8.4796-2.862 8.4796-5.512 0-.265-.017-.52-.0495-.764.3305.741.5816 1.443.7563 2.111.5186 1.93.8042 3.564.8042 4.599 0 3.347-.6425 5.584-1.9643 6.836-1.1511 1.09-2.9062 1.577-5.6902 1.577-1.2694 0-2.6092-.061-4.0024-.181l-9.3367-.546-.0219-.001h-1.9469l.4613 1.05 1.0173 2.316c-4.584-3.726-6.1179-5.422-6.1179-7.896ZM66.772 182.55c3.2851 1.914 5.8709 4.124 7.6944 6.577.6499.897 1.2195 1.747 1.7117 2.556-.6794-.538-1.5824-.832-2.6617-.832-1.2933 0-2.7719.282-4.5006.86l-2.2438-9.161m-16.0786 6.32c0 4.914 2.8009 8.585 7.3135 10.951v.304c-.3629-.061-.8297-.061-1.5046-.061-4.2016 0-5.7575 1.123-5.7575 4.035 0 2.913 1.9193 4.854 6.6396 8.676l1.6079 1.335.2595-.242-1.9712-4.49h.7782l9.3367.546c1.4007.121 2.7495.182 4.0458.182 5.3428 0 8.4032-1.699 8.4032-9.162 0-1.031-.2595-2.67-.8296-4.793-.5706-2.184-1.9193-4.672-3.942-7.463-2.0746-2.791-5.0832-5.278-9.0257-7.402l-.3115.182 2.749 11.224c1.9713-.728 3.631-1.092 5.0312-1.092 2.2304 0 3.3196 1.395 3.3196 3.397 0 2.731-2.7031 4.763-7.8382 4.763l-2.5418-7.371c-2.5418-6.371-5.8559-10.558-10.2127-10.558-3.3715 0-5.5504 2.852-5.5504 7.038l.001.001Zm17.1114 10.891-8.0343-.122c-1.8675-1.152-2.8009-3.428-2.8009-4.823 0-1.274.9334-2.67 2.8528-2.67 2.2823 0 5.1296 2.7 7.9824 7.615ZM44.4863.525391V406.169h.8576V.525391h-.8576Z"/>
</svg>
