<svg viewBox="0 0 927 837" fill="none" xmlns="http://www.w3.org/2000/svg">
<path d="M476.49 411.897C470.586 415.733 466.01 419.563 462.913 423.204C459.816 426.841 458.182 430.307 458.182 433.411C458.182 438.624 461.558 441.189 464.702 441.189C466.391 441.189 468.601 440.551 470.737 439.282C472.874 438.013 474.94 436.114 476.335 433.576L476.348 433.553V433.519L476.655 411.988V411.785L476.49 411.897ZM481.959 379.777C491.994 379.777 498.133 381.822 501.769 385.635C505.405 389.448 506.558 395.052 506.558 402.24C506.558 405.725 506.389 409.336 506.042 413.054L504.543 438.088V440.318L504.691 440.254L516.69 435.108V435.132L516.778 435.088L517.287 435.641L513.772 439.866C508.62 446.199 504.741 450.643 501.173 453.505C497.611 456.363 494.366 457.638 490.477 457.638C486.589 457.638 483.903 456.599 482.188 454.183C480.466 451.757 479.704 447.917 479.704 442.278C479.704 440.446 479.704 439.248 479.869 438.283L479.89 438.158H478.889L478.858 438.216C472.48 450.275 462.603 457.807 449.414 457.807C443.786 457.807 439.076 456.352 435.777 453.778C432.478 451.207 430.58 447.515 430.58 443.028C430.58 437.224 433.384 432.108 438.334 427.594C443.288 423.076 450.388 419.158 458.96 415.757L478.821 408.937L478.896 408.914V408.836C478.896 401.953 477.524 396.675 475.223 393.116C472.918 389.552 469.673 387.713 465.949 387.713C463.226 387.713 460.908 388.449 459.267 389.947C457.626 391.445 456.679 393.699 456.679 396.699C456.679 400.471 457.646 404.855 459.58 410.135L429.543 417.474L429.101 416.732C434.793 406.177 441.512 398.126 449.02 392.589C456.564 387.15 463.226 383.556 469.076 382.014C474.774 380.469 479.199 379.781 481.952 379.781L481.959 379.777Z" stroke="currentColor" stroke-width="0.697471"/>
<path d="M477.33 410.136C469.917 414.955 464.175 419.763 460.283 424.332C456.394 428.901 454.345 433.25 454.345 437.147C454.345 443.693 458.584 446.912 462.534 446.912C464.653 446.912 467.43 446.113 470.109 444.52C472.791 442.927 475.382 440.542 477.138 437.357L477.155 437.326V437.282L477.539 410.251V409.998L477.33 410.136ZM484.194 369.804C496.794 369.804 504.504 372.372 509.066 377.157C513.629 381.945 515.078 388.983 515.078 398.003C515.078 402.379 514.865 406.911 514.431 411.581L512.547 443.012V445.809L512.736 445.728L527.802 439.266V439.297L527.913 439.239L528.553 439.934L524.142 445.239C517.672 453.189 512.803 458.77 508.325 462.363C503.853 465.95 499.776 467.553 494.9 467.553C490.024 467.553 486.644 466.247 484.494 463.213C482.334 460.167 481.377 455.348 481.377 448.269C481.377 445.968 481.377 444.463 481.586 443.255L481.613 443.096H480.356L480.319 443.167C472.309 458.307 459.912 467.762 443.35 467.762C436.283 467.762 430.37 465.933 426.228 462.704C422.087 459.475 419.704 454.842 419.704 449.204C419.704 441.919 423.222 435.497 429.439 429.825C435.66 424.153 444.57 419.237 455.336 414.965L480.268 406.405L480.359 406.374V406.276C480.359 397.631 478.641 391.008 475.746 386.54C472.852 382.066 468.781 379.758 464.104 379.758C460.687 379.758 457.772 380.683 455.717 382.562C453.658 384.445 452.468 387.273 452.468 391.042C452.468 395.779 453.681 401.279 456.111 407.913L418.4 417.128L417.844 416.197C424.988 402.943 433.426 392.84 442.854 385.886C452.327 379.056 460.69 374.541 468.036 372.608C475.19 370.668 480.747 369.801 484.201 369.801L484.194 369.804Z" stroke="currentColor" stroke-width="0.697471"/>
<path d="M478.174 408.376C469.251 414.177 462.34 419.96 457.659 425.464C452.979 430.964 450.512 436.194 450.512 440.887C450.512 448.766 455.614 452.64 460.365 452.64C462.919 452.64 466.259 451.675 469.484 449.762C472.708 447.845 475.832 444.974 477.942 441.14L477.962 441.103V441.049L478.427 408.515V408.211L478.178 408.376H478.174ZM486.433 359.838C501.597 359.838 510.874 362.929 516.367 368.688C521.859 374.448 523.601 382.921 523.601 393.776C523.601 399.04 523.349 404.496 522.823 410.114V410.121L520.559 447.943V451.31L520.784 451.213L538.917 443.435V443.469L539.052 443.401L539.823 444.238L534.516 450.622C526.732 460.191 520.869 466.906 515.477 471.229C510.096 475.548 505.189 477.474 499.319 477.474C493.449 477.474 489.385 475.905 486.794 472.251C484.193 468.583 483.04 462.786 483.04 454.266C483.04 451.499 483.04 449.687 483.293 448.23L483.326 448.041H481.813L481.766 448.128C472.125 466.349 457.204 477.731 437.276 477.731C428.774 477.731 421.654 475.531 416.667 471.644C411.683 467.76 408.815 462.182 408.815 455.397C408.815 446.627 413.051 438.9 420.532 432.074C428.016 425.248 438.742 419.329 451.698 414.19L481.706 403.889L481.817 403.852V403.737C481.817 393.334 479.748 385.361 476.264 379.985C472.779 374.603 467.88 371.823 462.249 371.823C458.134 371.823 454.63 372.933 452.153 375.197C449.673 377.461 448.244 380.866 448.244 385.401C448.244 391.1 449.703 397.72 452.628 405.704L407.241 416.795L406.571 415.675C415.167 399.725 425.323 387.564 436.669 379.196C448.069 370.98 458.134 365.544 466.977 363.215C475.586 360.88 482.272 359.838 486.43 359.838H486.433Z" stroke="currentColor" stroke-width="0.697471"/>
<path d="M479.013 406.615C468.58 413.394 460.502 420.159 455.026 426.59C449.554 433.018 446.669 439.136 446.669 444.622C446.669 453.834 452.635 458.359 458.188 458.359C461.174 458.359 465.075 457.232 468.846 454.995C472.616 452.754 476.27 449.397 478.737 444.916L478.759 444.872V444.811L479.302 406.777L479.31 406.419L479.009 406.611L479.013 406.615ZM488.673 349.87C506.401 349.87 517.248 353.484 523.668 360.215C530.087 366.95 532.126 376.854 532.126 389.548C532.126 395.702 531.83 402.08 531.217 408.649V408.656L528.567 452.872V452.879V456.81L528.83 456.695L550.03 447.605V447.646L550.187 447.565L551.087 448.54L544.881 456.004C535.779 467.189 528.925 475.041 522.624 480.096C516.329 485.144 510.597 487.398 503.733 487.398C496.869 487.398 492.117 485.562 489.091 481.294C486.051 477.005 484.703 470.226 484.703 460.265C484.703 457.029 484.703 454.91 484.997 453.21L485.034 452.987H483.268L483.215 453.088C471.943 474.39 454.497 487.695 431.199 487.695C421.258 487.695 412.938 485.123 407.105 480.578C401.279 476.037 397.927 469.518 397.927 461.585C397.927 451.334 402.877 442.297 411.625 434.317C420.376 426.334 432.914 419.417 448.061 413.41L483.143 401.364L483.271 401.32V401.186C483.271 389.025 480.852 379.702 476.781 373.415C472.707 367.122 466.979 363.873 460.398 363.873C455.589 363.873 451.492 365.172 448.594 367.818C445.697 370.466 444.021 374.445 444.021 379.745C444.021 386.41 445.729 394.15 449.146 403.483L396.083 416.447L395.302 415.138C405.354 396.492 417.225 382.273 430.491 372.491C443.819 362.884 455.586 356.531 465.924 353.811C475.989 351.081 483.808 349.863 488.671 349.863L488.673 349.87Z" stroke="currentColor" stroke-width="0.697471"/>
<path d="M479.855 404.856C467.916 412.616 458.667 420.357 452.402 427.719C446.141 435.079 442.84 442.08 442.84 448.36C442.84 458.904 449.667 464.084 456.026 464.084C459.443 464.084 463.911 462.795 468.227 460.23C472.544 457.666 476.723 453.823 479.546 448.694L479.573 448.643V448.572L480.193 405.038L480.199 404.629L479.859 404.852L479.855 404.856ZM490.911 339.901C511.204 339.901 523.618 344.038 530.967 351.745C538.317 359.455 540.65 370.789 540.65 385.319C540.65 392.364 540.309 399.666 539.608 407.184V407.191L536.575 457.801V457.808V462.309L536.879 462.177L561.14 451.771V451.818L561.319 451.727L562.35 452.844L555.246 461.388C544.827 474.19 536.983 483.179 529.772 488.966C522.568 494.746 516.006 497.324 508.148 497.324C500.289 497.324 494.852 495.221 491.388 490.335C487.907 485.429 486.362 477.669 486.362 466.267C486.362 462.562 486.362 460.139 486.699 458.189L486.743 457.936H484.721L484.661 458.051C471.761 482.433 451.792 497.664 425.121 497.664C413.741 497.664 404.218 494.722 397.543 489.519C390.874 484.319 387.04 476.859 387.04 467.779C387.04 456.043 392.709 445.704 402.72 436.567C412.735 427.429 427.09 419.513 444.427 412.633L484.583 398.846L484.732 398.795V398.64C484.732 384.718 481.962 374.049 477.302 366.855C472.638 359.651 466.08 355.932 458.549 355.932C453.042 355.932 448.352 357.42 445.039 360.447C441.72 363.48 439.806 368.032 439.806 374.103C439.806 381.732 441.761 390.589 445.673 401.272L384.938 416.112L384.042 414.614C395.546 393.272 409.135 376.994 424.319 365.799C439.574 354.802 453.043 347.53 464.875 344.416C476.396 341.291 485.346 339.894 490.909 339.894L490.911 339.901Z" stroke="currentColor" stroke-width="0.697471"/>
<path d="M480.698 403.093C467.25 411.836 456.835 420.555 449.775 428.846C442.722 437.133 439.001 445.022 439.001 452.094C439.001 463.972 446.692 469.806 453.853 469.806C457.701 469.806 462.735 468.352 467.594 465.467C472.457 462.578 477.163 458.249 480.341 452.472L480.371 452.418V452.341L481.073 403.303L481.079 402.844L480.695 403.093H480.698ZM493.15 329.933C516.007 329.933 529.991 334.589 538.267 343.275C546.546 351.96 549.171 364.725 549.171 381.09C549.171 389.026 548.791 397.249 547.999 405.719V405.725L544.582 462.733V462.74V467.808L544.923 467.663L572.251 455.941V455.992L572.452 455.89L573.616 457.149L565.613 466.772C553.88 481.194 545.04 491.317 536.915 497.832C528.801 504.341 521.411 507.25 512.559 507.25C503.707 507.25 497.584 504.885 493.682 499.378C489.763 493.851 488.025 485.111 488.025 472.266C488.025 468.092 488.024 465.365 488.401 463.169L488.452 462.882H486.174L486.108 463.013C471.577 490.477 449.084 507.631 419.047 507.631C406.228 507.631 395.501 504.314 387.983 498.457C380.472 492.602 376.152 484.194 376.152 473.97C376.152 460.753 382.536 449.105 393.814 438.817C405.096 428.525 421.263 419.607 440.79 411.86L486.022 396.331L486.188 396.274V396.099C486.188 380.418 483.067 368.403 477.82 360.294C472.567 352.179 465.184 347.992 456.699 347.992C450.499 347.992 445.216 349.666 441.482 353.077C437.745 356.492 435.589 361.621 435.589 368.457C435.589 377.048 437.789 387.029 442.197 399.061L373.784 415.777L372.776 414.09C385.736 390.049 401.041 371.72 418.143 359.107C435.325 346.72 450.499 338.53 463.823 335.021C476.799 331.502 486.878 329.93 493.146 329.93L493.15 329.933Z" stroke="currentColor" stroke-width="0.697471"/>
<path d="M481.537 401.335C466.579 411.057 454.994 420.754 447.146 429.976C439.301 439.194 435.163 447.968 435.163 455.833C435.163 469.043 443.715 475.532 451.681 475.532C455.961 475.532 461.561 473.916 466.966 470.707C472.375 467.494 477.608 462.679 481.146 456.255L481.18 456.194V456.106L481.958 401.568L481.965 401.059L481.537 401.335ZM495.387 319.969C520.808 319.969 536.359 325.148 545.565 334.805C554.771 344.462 557.693 358.665 557.693 376.862C557.693 385.689 557.268 394.833 556.389 404.254V404.264L552.591 467.666V467.673V473.312L552.972 473.15L583.367 460.111V460.169L583.593 460.054L584.883 461.454L575.984 472.158C562.933 488.195 553.107 499.455 544.069 506.703C535.045 513.944 526.823 517.177 516.98 517.177C507.137 517.177 500.323 514.545 495.983 508.424C491.623 502.276 489.692 492.555 489.692 478.272C489.692 473.632 489.692 470.595 490.113 468.152L490.167 467.832H487.633L487.555 467.977C471.394 498.521 446.381 517.602 412.97 517.602C398.716 517.602 386.784 513.914 378.423 507.398C370.07 500.886 365.265 491.536 365.265 480.165C365.265 465.463 372.365 452.509 384.907 441.067C397.456 429.622 415.436 419.701 437.151 411.087L487.458 393.818L487.643 393.753V393.558C487.643 376.12 484.172 362.754 478.336 353.738C472.493 344.715 464.281 340.056 454.845 340.056C447.948 340.056 442.074 341.918 437.919 345.711C433.761 349.51 431.365 355.213 431.365 362.818C431.365 372.374 433.815 383.472 438.715 396.854L362.629 415.446L361.507 413.57C375.92 386.833 392.944 366.446 411.966 352.419C431.075 338.642 447.951 329.535 462.771 325.631C477.204 321.716 488.415 319.969 495.383 319.969H495.387Z" stroke="currentColor" stroke-width="0.697471"/>
<path d="M482.379 399.573C465.911 410.276 453.16 420.952 444.517 431.105C435.88 441.252 431.328 450.909 431.328 459.57C431.328 474.11 440.744 481.257 449.512 481.257C454.223 481.257 460.385 479.479 466.336 475.946C472.29 472.409 478.052 467.108 481.944 460.036L481.982 459.969V459.871L482.837 399.833L482.845 399.269L482.372 399.576L482.379 399.573ZM497.628 310C525.614 310 542.735 315.702 552.868 326.335C563.004 336.967 566.218 352.6 566.218 372.636C566.218 382.354 565.75 392.419 564.783 402.792V402.802L560.6 472.598V472.609V478.814L561.019 478.635L594.48 464.284V464.348L594.73 464.223L596.152 465.766L586.355 477.548C571.987 495.206 561.171 507.6 551.223 515.58C541.29 523.55 532.237 527.109 521.4 527.109C510.563 527.109 503.067 524.211 498.288 517.473C493.49 510.704 491.359 500.004 491.359 484.28C491.359 479.171 491.359 475.831 491.824 473.142L491.885 472.791H489.095L489.012 472.949C471.219 506.577 443.682 527.578 406.905 527.578C391.212 527.578 378.077 523.519 368.874 516.346C359.678 509.175 354.388 498.884 354.388 486.365C354.388 470.182 362.201 455.919 376.01 443.323C389.823 430.724 409.617 419.805 433.526 410.32L488.906 391.306L489.108 391.235V391.022C489.108 371.823 485.288 357.111 478.862 347.187C472.429 337.254 463.388 332.125 452.999 332.125C445.407 332.125 438.94 334.176 434.367 338.354C429.791 342.534 427.152 348.814 427.152 357.185C427.152 367.706 429.848 379.925 435.243 394.657L351.483 415.125L350.25 413.06C366.118 383.626 384.857 361.181 405.796 345.737C426.833 330.573 445.411 320.544 461.727 316.246C477.619 311.937 489.957 310.013 497.63 310.013L497.628 310Z" stroke="currentColor" stroke-width="0.697471"/>
<path d="M483.22 397.815C465.246 409.497 451.323 421.151 441.892 432.236C432.463 443.313 427.492 453.855 427.492 463.309C427.492 479.182 437.77 486.983 447.344 486.983C452.486 486.983 459.214 485.039 465.711 481.186C472.211 477.326 478.504 471.539 482.753 463.815L482.793 463.741V463.637L483.729 398.095L483.74 397.481L483.224 397.815H483.22ZM499.863 300.033C530.413 300.033 549.105 306.258 560.168 317.862C571.234 329.469 574.743 346.533 574.743 368.405C574.743 379.014 574.231 390.004 573.176 401.324V401.334L568.61 477.528V477.538V484.314L569.064 484.118L605.592 468.452V468.522L605.866 468.384L607.418 470.068L596.723 482.931C581.04 502.204 569.229 515.735 558.369 524.447C547.525 533.146 537.645 537.033 525.817 537.033C513.989 537.033 505.802 533.872 500.585 526.512C495.346 519.123 493.023 507.444 493.023 490.276C493.023 484.699 493.024 481.051 493.529 478.115L493.596 477.731H490.549L490.458 477.906C471.039 514.615 440.977 537.543 400.827 537.543C383.695 537.543 369.358 533.112 359.312 525.281C349.274 517.456 343.499 506.22 343.499 492.551C343.499 474.883 352.03 459.317 367.103 445.564C382.182 431.811 403.789 419.889 429.888 409.534L490.34 388.779L490.564 388.701V388.468C490.564 367.511 486.391 351.449 479.379 340.615C472.36 329.77 462.486 324.172 451.147 324.172C442.858 324.172 435.799 326.409 430.809 330.971C425.811 335.536 422.93 342.389 422.93 351.527C422.93 363.01 425.872 376.348 431.762 392.43L340.327 414.771L338.979 412.517C356.3 380.384 376.757 355.883 399.617 339.025C422.582 322.471 442.861 311.525 460.673 306.835C478.021 302.131 491.49 300.029 499.867 300.029L499.863 300.033Z" stroke="currentColor" stroke-width="0.697471"/>
<path d="M484.06 396.054C464.577 408.718 449.487 421.351 439.263 433.364C429.043 445.369 423.655 456.798 423.655 467.045C423.655 484.251 434.791 492.707 445.169 492.707C450.743 492.707 458.038 490.601 465.078 486.42C472.124 482.236 478.941 475.963 483.547 467.592L483.591 467.511V467.396L484.605 396.355L484.616 395.69L484.06 396.051V396.054ZM502.102 290.066C535.215 290.066 555.474 296.814 567.467 309.393C579.46 321.976 583.264 340.47 583.264 364.178C583.264 375.677 582.712 387.588 581.566 399.857V399.867L576.619 482.456V482.466V489.808L577.116 489.595L616.71 472.613V472.687L617.002 472.539L618.684 474.364L607.092 488.307C590.091 509.2 577.291 523.864 565.52 533.306C553.767 542.737 543.058 546.948 530.236 546.948C517.414 546.948 508.542 543.519 502.887 535.546C497.209 527.539 494.691 514.875 494.691 496.27C494.691 490.223 494.692 486.272 495.241 483.09L495.311 482.675H492.009L491.909 482.864C470.858 522.653 438.273 547.504 394.753 547.504C376.185 547.504 360.644 542.699 349.753 534.213C338.872 525.73 332.611 513.553 332.611 498.736C332.611 479.587 341.858 462.713 358.198 447.805C374.544 432.895 397.964 419.974 426.253 408.752L491.78 386.256L492.02 386.175V385.922C492.02 363.206 487.498 345.795 479.896 334.052C472.287 322.297 461.587 316.226 449.294 316.226C440.31 316.226 432.658 318.652 427.246 323.596C421.831 328.542 418.707 335.972 418.707 345.879C418.707 358.327 421.895 372.786 428.28 390.217L329.171 414.434L327.708 411.991C346.484 377.162 368.657 350.607 393.435 332.332C418.327 314.387 440.307 302.523 459.616 297.438C478.419 292.34 493.021 290.062 502.099 290.062L502.102 290.066Z" stroke="currentColor" stroke-width="0.697471"/>
<path d="M484.902 394.292C463.908 407.937 447.649 421.546 436.634 434.489C425.625 447.426 419.819 459.739 419.819 470.779C419.819 489.318 431.819 498.428 442.999 498.428C449.004 498.428 456.862 496.161 464.451 491.656C472.043 487.148 479.389 480.389 484.353 471.37L484.4 471.282V471.161L485.492 394.619L485.502 393.904L484.902 394.295V394.292ZM504.338 280.097C540.02 280.097 561.846 287.368 574.766 300.919C587.689 314.474 591.786 334.402 591.786 359.945C591.786 372.332 591.19 385.168 589.956 398.388V398.402L584.626 487.384V487.394V495.307L585.158 495.077L627.819 476.782V476.863L628.135 476.705L629.948 478.668L617.457 493.691C599.139 516.2 585.347 532.002 572.663 542.175C560 552.335 548.462 556.874 534.646 556.874C520.83 556.874 511.27 553.179 505.177 544.588C499.061 535.96 496.345 522.318 496.345 502.271C496.345 495.759 496.345 491.497 496.935 488.069L497.013 487.62H493.458L493.35 487.823C470.668 530.693 435.562 557.471 388.673 557.471C368.666 557.471 351.922 552.295 340.189 543.15C328.462 534.01 321.719 520.89 321.719 504.927C321.719 484.293 331.684 466.113 349.287 450.055C366.897 433.99 392.133 420.071 422.612 407.978L493.215 383.737L493.474 383.649V383.376C493.474 358.899 488.605 340.142 480.413 327.492C472.215 314.828 460.687 308.285 447.444 308.285C437.763 308.285 429.52 310.901 423.691 316.225C417.858 321.556 414.491 329.56 414.491 340.233C414.491 353.646 417.929 369.221 424.806 388.002L318.019 414.095L316.446 411.463C336.674 373.938 360.566 345.325 387.261 325.636C414.08 306.301 437.763 293.516 458.564 288.04C478.823 282.547 494.553 280.094 504.338 280.094V280.097Z" stroke="currentColor" stroke-width="0.697471"/>
<path d="M485.745 392.535C463.242 407.159 445.817 421.749 434.01 435.621C422.209 449.489 415.985 462.686 415.985 474.519C415.985 494.39 428.847 504.155 440.833 504.155C447.273 504.155 455.694 501.726 463.825 496.897C471.963 492.065 479.835 484.821 485.155 475.154L485.206 475.063V474.931L486.375 392.886L486.385 392.117L485.742 392.535H485.745ZM506.58 270.131C544.827 270.131 568.219 277.925 582.069 292.451C595.918 306.981 600.316 328.343 600.316 355.722C600.316 369 599.676 382.757 598.355 396.928V396.942L592.64 492.322V492.335V500.815L593.209 500.569L638.933 480.957V481.045L639.273 480.873L641.218 482.979L627.83 499.081C608.198 523.21 593.411 540.145 579.818 551.051C566.241 561.943 553.874 566.805 539.068 566.805C524.261 566.805 514.01 562.847 507.483 553.636C500.926 544.387 498.018 529.763 498.018 508.275C498.018 501.294 498.018 496.729 498.651 493.054L498.736 492.575H494.924L494.81 492.794C470.497 538.745 432.867 567.446 382.608 567.446C361.163 567.446 343.216 561.899 330.637 552.093C318.068 542.298 310.839 528.231 310.839 511.123C310.839 489.008 321.518 469.522 340.389 452.307C359.266 435.088 386.315 420.167 418.984 407.206L494.662 381.225L494.938 381.13V380.837C494.938 354.602 489.718 334.495 480.937 320.933C472.148 307.359 459.792 300.347 445.598 300.347C435.223 300.347 426.384 303.148 420.137 308.857C413.882 314.57 410.277 323.15 410.277 334.589C410.277 348.963 413.96 365.663 421.333 385.793L306.873 413.763L305.185 410.942C326.866 370.721 352.476 340.049 381.092 318.946C409.839 298.221 435.226 284.519 457.52 278.647C479.235 272.759 496.097 270.131 506.584 270.131H506.58Z" stroke="currentColor" stroke-width="0.697471"/>
<path d="M486.587 390.773C462.577 406.379 443.98 421.944 431.38 436.751C418.788 451.547 412.146 465.627 412.146 478.257C412.146 499.461 425.871 509.877 438.659 509.877C445.53 509.877 454.517 507.283 463.194 502.133C471.878 496.978 480.279 489.247 485.957 478.932L486.01 478.834V478.692L487.262 391.147L487.275 390.327L486.587 390.773ZM508.818 260.162C549.629 260.162 574.591 268.476 589.368 283.978C604.147 299.482 608.837 322.276 608.837 351.49C608.837 365.658 608.153 380.34 606.744 395.46V395.473L600.645 497.248V497.261V506.311L601.256 506.051L650.046 485.124V485.218L650.41 485.036L652.483 487.283L638.194 504.465C617.244 530.211 601.468 548.283 586.965 559.921C572.479 571.542 559.282 576.731 543.481 576.731C527.68 576.731 516.746 572.507 509.777 562.678C502.782 552.808 499.678 537.205 499.678 514.277C499.678 506.827 499.678 501.955 500.355 498.034L500.444 497.521H496.376L496.251 497.754C470.311 546.785 430.158 577.413 376.526 577.413C353.642 577.413 334.491 571.495 321.069 561.031C307.658 550.578 299.944 535.569 299.944 517.314C299.944 493.718 311.341 472.923 331.478 454.553C351.619 436.18 380.485 420.257 415.345 406.426L496.096 378.703L496.393 378.602V378.288C496.393 350.295 490.823 328.842 481.452 314.37C472.074 299.884 458.888 292.403 443.741 292.403C432.671 292.403 423.239 295.393 416.574 301.483C409.902 307.581 406.055 316.735 406.055 328.943C406.055 344.282 409.984 362.098 417.852 383.579L295.715 413.421L293.917 410.408C317.053 367.487 344.377 334.76 374.911 312.244C405.585 290.132 432.674 275.508 456.465 269.242C479.635 262.96 497.63 260.152 508.818 260.152V260.162Z" stroke="currentColor" stroke-width="0.697471"/>
<path d="M487.427 389.012C461.908 405.6 442.141 422.144 428.754 437.878C415.369 453.605 408.313 468.57 408.313 481.993C408.313 504.529 422.9 515.6 436.494 515.6C443.796 515.6 453.346 512.844 462.569 507.367C471.795 501.887 480.725 493.668 486.76 482.708L486.817 482.604V482.455L488.145 389.41L488.158 388.54L487.427 389.015V389.012ZM511.056 250.195C554.431 250.195 580.961 259.032 596.667 275.509C612.377 291.985 617.361 316.212 617.361 347.262C617.361 362.322 616.636 377.924 615.137 393.996V394.013L608.657 502.181V502.194V511.814L609.304 511.538L661.16 489.295V489.393L661.544 489.197L663.748 491.586L648.564 509.847C626.297 537.213 609.533 556.419 594.113 568.785C578.717 581.139 564.692 586.652 547.897 586.652C531.102 586.652 519.48 582.161 512.077 571.718C504.64 561.227 501.341 544.646 501.341 520.277C501.341 512.361 501.341 507.182 502.059 503.014L502.153 502.471H497.83L497.698 502.718C470.127 554.829 427.45 587.381 370.451 587.381C346.131 587.381 325.775 581.091 311.511 569.97C297.257 558.858 289.058 542.908 289.058 523.506C289.058 498.425 301.169 476.324 322.573 456.801C343.981 437.274 374.659 420.352 411.709 405.65L497.536 376.186L497.85 376.078V375.748C497.85 345.997 491.929 323.194 481.972 307.814C472.004 292.417 457.993 284.467 441.892 284.467C430.125 284.467 420.103 287.646 413.017 294.118C405.924 300.596 401.833 310.328 401.833 323.302C401.833 339.606 406.011 358.539 414.372 381.373L284.563 413.091L282.649 409.888C307.238 364.272 336.285 329.49 368.735 305.557C401.337 282.055 430.128 266.513 455.415 259.856C480.041 253.178 499.164 250.195 511.056 250.195Z" stroke="currentColor" stroke-width="0.697471"/>
<path d="M488.268 387.254C461.239 404.82 440.307 422.342 426.124 439.008C411.947 455.663 404.473 471.515 404.473 485.731C404.473 509.597 419.923 521.326 434.319 521.326C442.052 521.326 452.168 518.407 461.937 512.607C471.709 506.803 481.168 498.098 487.56 486.49L487.621 486.379V486.22L489.026 387.672L489.04 386.751L488.268 387.254ZM513.292 240.224C559.231 240.224 587.331 249.584 603.964 267.032C620.601 284.484 625.881 310.142 625.881 343.031C625.881 358.981 625.113 375.504 623.526 392.528V392.544L616.661 507.11V507.124V517.311L617.345 517.017L672.269 493.462V493.566L672.676 493.36L675.012 495.891L658.931 515.232H658.928C635.347 544.214 617.588 564.557 601.258 577.656C584.952 590.738 570.098 596.579 552.31 596.579C534.521 596.579 522.215 591.824 514.37 580.76C506.495 569.652 503 552.086 503 526.276C503 517.891 503 512.405 503.762 507.991L503.863 507.414H499.284L499.145 507.677C469.943 562.87 424.742 597.348 364.373 597.348C338.615 597.348 317.056 590.684 301.949 578.908C286.853 567.138 278.169 550.247 278.169 529.694C278.169 503.132 290.997 479.725 313.666 459.048C336.34 438.367 368.828 420.443 408.072 404.874L498.97 373.666L499.304 373.551V373.2C499.304 341.688 493.033 317.538 482.486 301.247C471.928 284.943 457.088 276.521 440.037 276.521C427.576 276.521 416.958 279.885 409.453 286.741C401.942 293.605 397.609 303.91 397.609 317.65C397.609 334.919 402.033 354.972 410.889 379.152L273.404 412.746L271.376 409.355C297.42 361.042 328.182 324.202 362.55 298.855C397.08 273.963 427.573 257.503 454.355 250.451H454.358C480.44 243.379 500.696 240.221 513.292 240.221V240.224Z" stroke="currentColor" stroke-width="0.697471"/>
<path d="M489.11 385.494C460.572 404.042 438.47 422.543 423.498 440.136C408.53 457.723 400.641 474.459 400.641 489.468C400.641 514.667 416.954 527.05 432.155 527.05C440.32 527.05 451.002 523.966 461.313 517.845C471.631 511.718 481.619 502.526 488.365 490.271L488.429 490.153V489.984L489.915 385.936L489.929 384.96L489.113 385.49L489.11 385.494ZM515.532 230.258C564.036 230.258 593.703 240.141 611.266 258.564C628.832 276.991 634.406 304.083 634.406 338.804C634.406 355.645 633.594 373.09 631.919 391.064V391.081L624.671 512.042V512.058V522.816L625.395 522.505L683.385 497.633V497.745L683.816 497.526L686.279 500.198L669.299 520.619H669.296C644.397 551.22 625.648 572.697 608.408 586.528C591.192 600.339 575.506 606.507 556.727 606.507C537.947 606.507 524.95 601.486 516.671 589.805C508.354 578.076 504.668 559.531 504.668 532.28C504.668 523.426 504.668 517.636 505.47 512.976L505.574 512.369H500.739L500.594 512.646C469.761 570.922 422.039 607.32 358.297 607.32C331.1 607.32 308.338 600.285 292.389 587.851C276.45 575.427 267.281 557.591 267.281 535.891C267.281 507.844 280.824 483.131 304.759 461.3C328.697 439.465 363.001 420.539 404.435 404.103L500.409 371.153L500.759 371.032V370.66C500.759 337.39 494.138 311.891 483.004 294.692C471.857 277.477 456.188 268.586 438.187 268.586C425.028 268.586 413.82 272.139 405.898 279.377C397.966 286.621 393.393 297.503 393.393 312.012C393.393 330.244 398.063 351.417 407.414 376.95L262.256 412.42L260.117 408.84C287.614 357.828 320.095 318.933 356.38 292.172C392.837 265.89 425.031 248.512 453.307 241.065H453.31C480.847 233.598 502.232 230.261 515.532 230.261V230.258Z" stroke="currentColor" stroke-width="0.697471"/>
<path d="M489.949 383.729C459.905 403.256 436.633 422.736 420.867 441.264C405.11 459.778 396.8 477.402 396.8 493.204C396.8 519.735 413.975 532.774 429.978 532.774C438.574 532.774 449.823 529.528 460.68 523.083C471.544 516.631 482.057 506.954 489.161 494.051L489.228 493.926V493.75L490.792 384.198L490.809 383.173L489.949 383.733V383.729ZM517.77 220.287C568.838 220.287 600.075 230.694 618.565 250.089C637.058 269.491 642.928 298.013 642.928 334.57C642.928 352.302 642.076 370.671 640.31 389.59V389.607L632.681 516.962V516.979V528.303L633.442 527.975L694.498 501.788V501.906L694.953 501.676L697.548 504.491L679.672 525.991H679.668C653.452 558.209 633.712 580.82 615.559 595.383C597.433 609.926 580.918 616.418 561.148 616.418C541.378 616.418 527.694 611.13 518.973 598.835C510.218 586.485 506.333 566.962 506.333 538.27C506.333 528.947 506.334 522.85 507.18 517.944L507.29 517.303H502.198L502.043 517.593C469.583 578.95 419.333 617.275 352.225 617.275C323.593 617.275 299.627 609.869 282.832 596.776C266.051 583.694 256.397 564.917 256.397 542.07C256.397 512.542 270.658 486.519 295.856 463.534C321.062 440.542 357.179 420.62 400.803 403.314L501.851 368.623L502.222 368.495V368.103C502.222 333.075 495.25 306.226 483.527 288.12C471.79 269.993 455.295 260.633 436.34 260.633C422.487 260.633 410.687 264.375 402.343 271.994C393.993 279.624 389.178 291.079 389.178 306.354C389.178 325.551 394.094 347.844 403.94 374.724L251.106 412.066L248.852 408.297C277.805 354.589 312.001 313.636 350.207 285.461C388.591 257.789 422.487 239.494 452.259 231.652H452.262C481.255 223.79 503.772 220.277 517.773 220.277L517.77 220.287Z" stroke="currentColor" stroke-width="0.697471"/>
<path d="M490.793 381.975C459.239 402.483 434.799 422.941 418.243 442.397C401.695 461.843 392.967 480.348 392.967 496.946C392.967 524.81 411.005 538.503 427.813 538.503C436.841 538.503 448.652 535.095 460.055 528.323C471.465 521.547 482.507 511.384 489.968 497.833L490.039 497.701V497.516L491.68 382.464L491.697 381.388L490.793 381.975ZM520.009 210.323C573.642 210.323 606.446 221.252 625.866 241.623C645.289 261.996 651.452 291.953 651.452 330.345C651.452 348.968 650.556 368.258 648.702 388.129V388.15L640.689 521.902V521.918V533.813L641.488 533.469L705.61 505.965V506.086L706.085 505.847L708.811 508.803L690.035 531.383H690.032C662.501 565.22 641.767 588.965 622.705 604.26C603.669 619.532 586.325 626.352 565.561 626.352C544.797 626.352 530.425 620.801 521.269 607.884C512.073 594.914 507.996 574.408 507.996 544.276C507.996 534.488 507.996 528.083 508.886 522.931L509.003 522.259H503.659L503.497 522.566C469.406 587.004 416.636 627.252 346.155 627.252C316.083 627.252 290.915 619.475 273.278 605.725C255.654 591.985 245.514 572.262 245.514 548.271C245.514 517.259 260.49 489.93 286.955 465.791C313.425 441.645 351.358 420.721 397.172 402.544L503.295 366.109L503.683 365.974V365.562C503.683 328.773 496.36 300.578 484.047 281.56C471.724 262.523 454.397 252.693 434.489 252.693C419.938 252.693 407.544 256.621 398.783 264.628C390.012 272.642 384.957 284.671 384.957 300.716C384.957 320.877 390.123 344.288 400.461 372.52L239.951 411.739L237.585 407.781C267.991 351.377 303.905 308.369 344.028 278.773C384.34 249.714 419.942 230.498 451.206 222.261H451.209C481.658 214.004 505.307 210.316 520.009 210.316V210.323Z" stroke="currentColor" stroke-width="0.697471"/>
<path d="M491.637 380.213C458.573 401.703 432.966 423.136 415.616 443.524C398.275 463.901 389.133 483.289 389.133 500.68C389.133 529.878 408.034 544.225 425.644 544.225C435.103 544.225 447.48 540.652 459.429 533.559C471.385 526.46 482.953 515.81 490.771 501.611L490.845 501.477V501.284L492.564 380.732L492.58 379.605L491.633 380.219L491.637 380.213ZM522.247 200.355C578.444 200.355 612.819 211.807 633.165 233.149C653.519 254.498 659.975 285.885 659.975 326.117C659.975 345.627 659.035 365.842 657.094 386.664V386.684L648.696 526.831V526.848V539.309L649.535 538.948L716.725 510.131V510.26L717.223 510.007L720.077 513.101L700.405 536.761H700.402C671.553 572.214 649.829 597.096 629.856 613.124C609.911 629.128 591.738 636.271 569.98 636.271C548.221 636.271 533.162 630.454 523.568 616.92C513.934 603.332 509.661 581.844 509.661 550.272C509.661 540.014 509.662 533.302 510.592 527.904L510.713 527.198H505.112L504.944 527.519C469.221 595.038 413.928 637.213 340.08 637.213C308.57 637.213 282.198 629.06 263.719 614.656C245.252 600.261 234.628 579.594 234.628 554.456C234.628 521.962 250.321 493.328 278.05 468.031C305.786 442.731 345.532 420.805 393.537 401.761L504.735 363.584L505.143 363.446V363.017C505.143 324.47 497.473 294.925 484.57 275C471.658 255.055 453.502 244.753 432.643 244.753C417.398 244.753 404.411 248.87 395.232 257.258C386.043 265.653 380.742 278.26 380.742 295.07C380.742 316.193 386.154 340.727 396.988 370.306L228.805 411.401L226.325 407.254C258.182 348.154 295.815 303.087 337.859 272.078C380.099 241.629 417.402 221.494 450.162 212.867H450.166C482.07 204.215 506.848 200.351 522.258 200.351L522.247 200.355Z" stroke="currentColor" stroke-width="0.697471"/>
<path d="M492.474 378.451C457.904 400.92 431.125 423.335 412.986 444.65C394.853 465.955 385.293 486.231 385.293 504.415C385.293 534.945 405.057 549.947 423.469 549.947C433.359 549.947 446.302 546.212 458.794 538.795C471.296 531.372 483.393 520.237 491.568 505.39L491.645 505.248V505.046L493.445 378.99L493.462 377.809L492.474 378.451ZM524.487 190.387C583.248 190.387 619.19 202.358 640.469 224.679C661.749 247.003 668.502 279.821 668.502 321.888C668.502 342.289 667.518 363.425 665.49 385.199V385.219L656.711 531.76V531.78V544.811L657.588 544.437L727.84 514.305V514.44L728.362 514.176L731.348 517.412L710.779 542.152H710.775C680.61 579.225 657.894 605.241 637.009 622.001C616.15 638.734 597.152 646.204 574.399 646.204C551.647 646.204 535.903 640.12 525.872 625.972C515.796 611.763 511.328 589.297 511.328 556.28C511.328 545.554 511.328 538.539 512.302 532.893L512.43 532.158H506.573L506.395 532.492C469.041 603.091 411.227 647.19 334.006 647.19C301.057 647.19 273.482 638.666 254.157 623.604C234.849 608.551 223.742 586.942 223.742 560.657C223.742 526.678 240.149 496.738 269.146 470.291C298.149 443.837 339.708 420.912 389.903 400.997L506.176 361.08L506.6 360.935V360.486C506.6 320.181 498.58 289.289 485.088 268.453C471.585 247.597 452.6 236.826 430.791 236.826C414.849 236.826 401.273 241.132 391.672 249.902C382.065 258.681 376.522 271.861 376.522 289.438C376.522 311.526 382.18 337.177 393.509 368.108L217.649 411.08L215.058 406.744C248.371 344.944 287.72 297.823 331.681 265.4C375.848 233.56 414.853 212.505 449.109 203.485H449.113C482.473 194.439 508.383 190.397 524.493 190.397L524.487 190.387Z" stroke="currentColor" stroke-width="0.697471"/>
<path d="M493.319 376.688C457.239 400.139 429.294 423.533 410.359 445.776C391.435 468.012 381.457 489.172 381.457 508.149C381.457 540.012 402.083 555.669 421.301 555.669C431.626 555.669 445.128 551.771 458.169 544.031C471.216 536.283 483.843 524.663 492.372 509.168L492.452 509.019V508.807L494.329 377.251L494.346 376.02L493.315 376.691L493.319 376.688ZM526.726 180.418C588.052 180.418 625.564 192.913 647.77 216.209C669.98 239.508 677.026 273.76 677.026 317.659C677.026 338.95 676.002 361.011 673.882 383.733V383.754L664.72 536.692V536.712V550.31L665.633 549.919L738.951 518.471V518.612L739.497 518.336L742.614 521.713L721.146 547.533H721.142C689.662 586.222 665.956 613.375 644.158 630.864C622.389 648.329 602.558 656.123 578.815 656.123C555.072 656.123 538.638 649.776 528.168 635.007C517.655 620.177 512.991 596.73 512.991 562.275C512.991 551.08 512.991 543.757 514.005 537.866L514.137 537.097H508.024L507.839 537.448C468.858 611.128 408.516 657.153 327.926 657.153C293.542 657.153 264.76 648.258 244.592 632.537C224.441 616.827 212.849 594.277 212.849 566.844C212.849 531.384 229.974 500.135 260.234 472.534C290.501 444.926 333.873 420.999 386.262 400.217L507.61 358.555L508.055 358.403V357.934C508.055 315.867 499.684 283.629 485.605 261.882C471.513 240.115 451.702 228.875 428.94 228.875C412.304 228.875 398.13 233.367 388.112 242.521C378.084 251.682 372.302 265.439 372.302 283.785C372.302 306.838 378.209 333.609 390.03 365.887L206.497 410.734L203.792 406.209C238.557 341.714 279.624 292.534 325.503 258.697C371.597 225.467 412.304 203.494 448.056 194.08H448.06C482.879 184.639 509.918 180.421 526.729 180.421L526.726 180.418Z" stroke="currentColor" stroke-width="0.697471"/>
<path d="M494.159 374.931C456.57 399.364 427.456 423.733 407.733 446.91C388.016 470.075 377.624 492.122 377.624 511.892C377.624 545.088 399.113 561.395 419.132 561.395C429.888 561.395 443.957 557.333 457.54 549.268C471.134 541.197 484.286 529.09 493.175 512.948L493.26 512.793V512.573L495.214 375.518L495.234 374.236L494.159 374.934V374.931ZM528.962 170.451C592.852 170.451 631.931 183.469 655.067 207.737C678.204 232.008 685.546 267.694 685.546 313.432C685.546 335.614 684.478 358.596 682.271 382.27V382.293L672.724 541.626V541.646V555.814L673.678 555.406L750.063 522.645V522.791L750.629 522.504L753.874 526.023L731.509 552.923H731.506C698.708 593.231 674.012 621.518 651.303 639.739C628.625 657.933 607.965 666.058 583.228 666.058C558.491 666.058 541.373 659.444 530.465 644.058C519.51 628.607 514.654 604.181 514.654 568.286C514.654 556.624 514.654 548.995 515.712 542.857L515.85 542.054H509.481L509.289 542.419C468.677 619.18 405.815 667.128 321.855 667.128C286.031 667.128 256.048 657.862 235.037 641.483C214.044 625.118 201.967 601.623 201.967 573.04C201.967 536.095 219.806 503.544 251.333 474.785C282.867 446.023 328.052 421.094 382.631 399.441L509.05 356.038L509.512 355.88V355.39C509.512 311.566 500.791 277.978 486.122 255.324C471.441 232.645 450.801 220.937 427.088 220.937C409.754 220.937 394.992 225.617 384.556 235.152C374.109 244.698 368.084 259.029 368.084 278.14C368.084 302.155 374.237 330.046 386.554 363.678L195.345 410.398L192.525 405.684C228.746 338.492 271.528 287.258 319.328 252.003C367.346 217.384 409.758 194.493 447.003 184.684H447.007C483.282 174.848 511.449 170.454 528.965 170.454L528.962 170.451Z" stroke="currentColor" stroke-width="0.697471"/>
<path d="M495 373.17C455.901 398.582 425.619 423.932 405.101 448.038C384.596 472.134 373.783 495.062 373.783 515.624C373.783 550.15 396.134 567.115 416.959 567.115C428.147 567.115 442.781 562.891 456.911 554.503C471.05 546.107 484.731 533.515 493.974 516.724L494.062 516.562V516.333L496.097 373.774L496.117 372.441L495 373.167V373.17ZM531.2 160.484C597.654 160.484 638.303 174.025 662.366 199.268C686.433 224.514 694.069 261.631 694.069 309.204C694.069 332.278 692.957 356.181 690.662 380.803V380.826L680.731 546.556V546.576V561.312L681.722 560.887L761.173 526.81V526.962L761.763 526.665L765.139 530.326L741.875 558.305L741.868 558.312C707.753 600.234 682.066 629.657 658.444 648.607C634.856 667.53 613.367 675.982 587.636 675.982C561.905 675.982 544.099 669.102 532.753 653.102C521.36 637.03 516.305 611.622 516.305 574.286C516.305 562.155 516.305 554.222 517.407 547.838L517.552 547.005H510.927L510.728 547.383C468.486 627.224 403.099 677.096 315.77 677.096C278.507 677.096 247.32 667.456 225.468 650.422C203.628 633.399 191.069 608.963 191.069 579.232C191.069 540.806 209.627 506.946 242.417 477.033C275.215 447.114 322.216 421.189 378.982 398.666L510.477 353.522L510.958 353.357V352.847C510.958 307.264 501.887 272.327 486.633 248.765C471.361 225.179 449.891 212.998 425.228 212.998C407.2 212.998 391.844 217.867 380.987 227.784C370.12 237.711 363.856 252.618 363.856 272.496C363.856 297.476 370.255 326.487 383.066 361.465L184.185 410.061L181.253 405.158C218.927 335.267 263.428 281.978 313.145 245.31C363.091 209.303 407.204 185.491 445.945 175.287H445.952C483.683 165.056 512.983 160.488 531.203 160.488L531.2 160.484Z" stroke="currentColor" stroke-width="0.697471"/>
<path d="M495.842 371.408C455.237 397.801 423.784 424.127 402.477 449.164C381.181 474.187 369.949 498.003 369.949 519.358C369.949 555.217 393.163 572.837 414.79 572.837C426.409 572.837 441.61 568.45 456.282 559.738C470.967 551.019 485.175 537.94 494.779 520.499L494.87 520.33V520.091L496.982 372.032L497.003 370.645L495.839 371.401L495.842 371.408ZM533.442 150.515C602.461 150.515 644.676 164.579 669.67 190.794C694.666 217.015 702.595 255.563 702.595 304.972C702.595 328.936 701.443 353.76 699.057 379.334V379.357L688.746 551.481V551.502V566.807L689.777 566.365L772.295 530.973V531.131L772.908 530.821L776.416 534.624L752.255 563.683L752.248 563.689C716.819 607.227 690.137 637.788 665.606 657.47C641.108 677.125 618.79 685.901 592.068 685.901C565.346 685.901 546.853 678.758 535.069 662.137C523.235 645.448 517.988 619.058 517.988 580.281C517.988 567.681 517.988 559.441 519.131 552.811L519.279 551.944H512.398L512.189 552.338C468.315 635.261 400.408 687.059 309.705 687.059C271.007 687.059 238.618 677.047 215.919 659.356C193.238 641.675 180.193 616.294 180.193 585.42C180.193 545.512 199.465 510.342 233.523 479.276C267.587 448.202 316.401 421.276 375.358 397.885L511.926 351L512.425 350.828V350.298C512.425 302.954 503.003 266.671 487.159 242.197C471.297 217.7 449 205.05 423.383 205.05C404.661 205.05 388.712 210.105 377.437 220.406C366.152 230.718 359.641 246.199 359.641 266.846C359.641 292.791 366.29 322.92 379.594 359.25L173.036 409.722L169.99 404.627C209.119 332.04 255.335 276.692 306.973 238.61C358.846 201.214 404.664 176.484 444.899 165.889H444.906C484.092 155.263 514.521 150.515 533.445 150.515H533.442Z" stroke="currentColor" stroke-width="0.697471"/>
<path d="M496.683 369.65C454.568 397.026 421.95 424.33 399.847 450.295C377.759 476.25 366.113 500.949 366.113 523.098C366.113 560.289 390.19 578.564 412.622 578.564C424.672 578.564 440.436 574.015 455.657 564.979C470.885 555.936 485.624 542.372 495.581 524.282L495.676 524.11V523.864L497.866 370.305L497.886 368.867L496.683 369.65ZM535.678 140.549C607.261 140.549 651.047 155.136 676.967 182.325C702.89 209.522 711.116 249.5 711.116 300.745C711.116 325.599 709.92 351.348 707.446 377.87V377.897L696.751 556.415V556.439V572.311L697.819 571.852L783.403 535.144V535.309L784.04 534.989L787.676 538.933L762.619 569.072L762.612 569.079C725.865 614.233 698.193 645.931 672.752 666.345C647.344 686.729 624.197 695.833 596.481 695.833C568.765 695.833 549.585 688.423 537.363 671.184C525.09 653.874 519.648 626.505 519.648 586.287C519.648 573.222 519.648 564.675 520.834 557.799L520.989 556.901H513.855L513.64 557.309C468.138 643.316 397.704 697.034 303.635 697.034C263.498 697.034 229.905 686.651 206.364 668.302C182.84 649.966 169.311 623.64 169.311 591.619C169.311 550.227 189.3 513.751 224.622 481.534C259.953 449.306 310.58 421.378 371.727 397.12L513.37 348.49L513.889 348.312V347.765C513.889 298.663 504.117 261.03 487.683 235.649C471.232 210.24 448.109 197.121 421.538 197.121C402.119 197.121 385.577 202.365 373.884 213.048C362.177 223.741 355.428 239.799 355.428 261.212C355.428 288.118 362.322 319.367 376.121 357.048L161.887 409.396L158.73 404.112C199.312 328.829 247.246 271.422 300.801 231.927C354.602 193.14 402.122 167.492 443.853 156.502H443.859C484.502 145.482 516.063 140.559 535.688 140.559L535.678 140.549Z" stroke="currentColor" stroke-width="0.697471"/>
<path d="M497.521 367.889C453.897 396.243 420.108 424.526 397.218 451.425C374.337 478.308 362.274 503.895 362.274 526.836C362.274 565.36 387.213 584.29 410.447 584.29C422.929 584.29 439.259 579.576 455.022 570.216C470.796 560.849 486.061 546.798 496.379 528.061L496.476 527.882V527.626L498.748 368.564L498.771 367.075L497.524 367.885L497.521 367.889ZM537.914 130.581C612.061 130.581 657.415 145.691 684.265 173.852C711.118 202.021 719.637 243.436 719.637 296.516C719.637 322.259 718.397 348.932 715.836 376.405V376.432L704.756 561.348V561.372V577.814L705.861 577.339L794.512 539.318V539.486L795.169 539.152L798.936 543.235L772.979 574.454L772.973 574.46C734.908 621.234 706.245 654.066 679.891 675.209C653.573 696.325 629.594 705.753 600.887 705.753C572.181 705.753 552.31 698.076 539.653 680.22C526.939 662.289 521.301 633.938 521.301 592.28C521.301 578.746 521.301 569.892 522.528 562.769L522.69 561.837H515.3L515.077 562.259C467.945 651.346 394.99 706.991 297.548 706.991C255.972 706.991 221.177 696.237 196.793 677.23C172.427 658.236 158.412 630.969 158.412 597.8C158.412 554.927 179.116 517.145 215.704 483.771C252.299 450.389 304.742 421.462 368.08 396.33L514.798 345.959L515.333 345.774V345.207C515.333 294.347 505.211 255.364 488.19 229.072C471.153 202.753 447.198 189.165 419.677 189.165C399.563 189.165 382.428 194.597 370.314 205.661C358.19 216.739 351.197 233.371 351.197 255.55C351.197 283.421 358.338 315.79 372.632 354.82L150.726 409.041L147.454 403.568C189.491 325.589 239.141 266.128 294.613 225.215C350.342 185.038 399.563 158.472 442.79 147.088H442.797C484.895 135.673 517.588 130.574 537.914 130.574V130.581Z" stroke="currentColor" stroke-width="0.697471"/>
<path d="M498.365 366.127C453.231 395.463 418.276 424.724 394.59 452.552C370.918 480.366 358.437 506.837 358.437 530.571C358.437 570.428 384.24 590.012 408.276 590.012C421.189 590.012 438.083 585.136 454.393 575.452C470.712 565.761 486.506 551.225 497.178 531.84L497.279 531.655V531.391L499.628 366.829L499.652 365.29L498.362 366.131L498.365 366.127ZM540.152 120.613C616.864 120.613 663.788 136.243 691.564 165.383C719.344 194.526 728.16 237.372 728.16 292.288C728.16 318.921 726.876 346.516 724.227 374.941V374.968L712.767 566.278V566.301V583.311L713.912 582.818L805.626 543.481V543.657L806.307 543.313L810.206 547.537L783.352 579.835L783.346 579.842C743.967 628.232 714.31 662.201 687.046 684.076C659.818 705.921 635.01 715.676 605.309 715.676C575.609 715.676 555.053 707.737 541.955 689.263C528.803 670.711 522.97 641.382 522.97 598.283C522.97 584.279 522.97 575.122 524.241 567.752L524.406 566.791H516.76L516.527 567.229C467.764 659.397 392.285 716.965 291.473 716.965C248.459 716.965 212.46 705.84 187.234 686.175C162.025 666.523 147.525 638.315 147.525 603.999C147.525 559.641 168.947 520.553 206.799 486.025C244.661 451.489 298.917 421.559 364.445 395.561L516.237 343.449L516.793 343.256V342.669C516.793 290.048 506.321 249.722 488.711 222.519C471.084 195.292 446.299 181.228 417.828 181.228C397.017 181.228 379.292 186.846 366.76 198.295C354.218 209.754 346.983 226.963 346.983 249.911C346.983 278.748 354.369 312.234 369.159 352.613L139.576 408.71L136.193 403.048C179.683 322.37 231.051 260.854 288.444 218.527C346.1 176.96 397.023 149.476 441.743 137.697H441.75C485.303 125.887 519.125 120.613 540.159 120.613H540.152Z" stroke="currentColor" stroke-width="0.697471"/>
<path d="M499.208 364.369C452.568 394.684 416.441 424.924 391.967 453.683C367.503 482.428 354.607 509.78 354.607 534.31C354.607 575.5 381.271 595.739 406.113 595.739C419.457 595.739 436.916 590.701 453.771 580.693C470.636 570.678 486.959 555.656 497.985 535.623L498.09 535.431V535.157L500.516 365.095L500.539 363.502L499.205 364.369H499.208ZM542.391 110.642C621.668 110.642 670.158 126.795 698.865 156.907C727.575 187.025 736.683 231.302 736.683 288.054C736.683 315.578 735.359 344.094 732.619 373.47V373.497L720.775 571.201V571.225V588.805L721.957 588.298L816.738 547.645V547.828L817.442 547.473L821.472 551.84L793.719 585.218L793.712 585.224C753.016 635.234 722.372 670.337 694.194 692.944C666.054 715.518 640.42 725.6 609.725 725.6C579.03 725.6 557.788 717.394 544.255 698.302C530.661 679.13 524.636 648.822 524.636 604.282C524.636 589.81 524.636 580.345 525.95 572.73L526.122 571.734H518.22L517.981 572.186C467.587 667.435 389.584 726.93 285.406 726.93C240.956 726.93 203.751 715.43 177.682 695.11C151.631 674.804 136.646 645.651 136.646 610.184C136.646 564.345 158.782 523.948 197.901 488.265C237.027 452.576 293.096 421.644 360.817 394.778L517.684 340.922L518.257 340.726V340.119C518.257 285.739 507.437 244.064 489.237 215.953C471.021 187.815 445.407 173.282 415.986 173.282C394.481 173.282 376.159 179.089 363.209 190.923C350.246 202.766 342.772 220.549 342.772 244.263C342.772 274.061 350.408 308.671 365.69 350.4L128.434 408.373L124.936 402.522C169.878 319.148 222.965 255.573 282.275 211.83C341.859 168.875 394.484 140.471 440.7 128.3H440.706C485.716 116.095 520.67 110.642 542.405 110.642H542.391Z" stroke="currentColor" stroke-width="0.697471"/>
<path d="M500.046 362.609C451.896 393.905 414.603 425.124 389.334 454.81C364.081 484.483 350.764 512.723 350.764 538.046C350.764 580.569 378.291 601.462 403.935 601.462C417.71 601.462 435.735 596.259 453.136 585.93C470.548 575.592 487.396 560.084 498.783 539.403L498.89 539.204V538.92L501.394 363.354L501.418 361.711L500.04 362.605L500.046 362.609ZM544.631 100.676C626.472 100.676 676.532 117.351 706.166 148.438C735.806 179.529 745.211 225.24 745.211 283.827C745.211 312.241 743.843 341.682 741.015 372.006V372.036L728.787 576.138V576.165V594.315L730.007 593.792L827.853 551.827V552.012L828.581 551.645L832.739 556.153L804.09 590.61L804.083 590.617C762.073 642.243 730.434 678.483 701.344 701.819C672.293 725.125 645.831 735.531 614.142 735.531C582.453 735.531 560.526 727.058 546.552 707.349C532.52 687.559 526.296 656.267 526.296 610.286C526.296 595.348 526.296 585.576 527.651 577.714L527.83 576.688H519.672L519.426 577.154C467.404 675.483 386.877 736.901 279.326 736.901C233.437 736.901 195.029 725.031 168.115 704.053C141.221 683.089 125.75 652.994 125.75 616.38C125.75 569.056 148.604 527.357 188.987 490.517C229.38 453.67 287.262 421.743 357.173 394.006L519.112 338.409L519.705 338.206V337.579C519.705 281.441 508.535 238.416 489.745 209.394C470.939 180.345 444.5 165.343 414.122 165.343C391.918 165.343 373.008 171.339 359.636 183.554C346.255 195.782 338.535 214.138 338.535 238.618C338.535 269.382 346.417 305.108 362.194 348.191L117.262 408.04L113.65 402C160.048 315.929 214.849 250.297 276.081 205.139C337.592 160.795 391.918 131.472 439.63 118.907H439.637C486.102 106.307 522.185 100.679 544.624 100.679L544.631 100.676Z" stroke="currentColor" stroke-width="0.697471"/>
<path d="M500.888 360.846C451.229 393.124 412.767 425.318 386.709 455.936C360.664 486.541 346.929 515.664 346.929 541.78C346.929 585.632 375.319 607.184 401.768 607.184C415.975 607.184 434.565 601.819 452.509 591.163C470.466 580.5 487.844 564.506 499.584 543.177L499.695 542.972V542.681L502.28 361.616L502.304 359.922L500.885 360.846H500.888ZM546.868 90.707C631.273 90.707 682.904 107.905 713.464 139.964C744.031 172.03 753.732 219.175 753.732 279.598C753.732 308.903 752.321 339.265 749.406 370.537V370.567L736.793 581.064V581.091V599.808L738.053 599.268L838.966 555.986V556.178L839.714 555.8L844.004 560.45L814.458 595.988L814.452 595.995C771.124 649.237 738.495 686.61 708.494 710.682C678.534 734.717 651.242 745.45 618.559 745.45C585.876 745.45 563.262 736.714 548.853 716.388C534.38 695.977 527.964 663.706 527.964 616.284C527.964 600.877 527.964 590.798 529.363 582.69L529.545 581.63H521.13L520.874 582.113C467.221 683.523 384.171 746.868 273.253 746.868C225.925 746.868 186.318 734.626 158.558 712.987C130.822 691.364 114.866 660.325 114.866 622.567C114.866 573.762 138.434 530.753 180.084 492.763C221.743 454.762 281.438 421.833 353.54 393.226L520.554 335.887L521.164 335.678V335.033C521.164 277.134 509.643 232.763 490.264 202.833C470.867 172.873 443.6 157.402 412.271 157.402C389.374 157.402 369.87 163.584 356.081 176.183C342.279 188.793 334.319 207.726 334.319 232.976C334.319 264.704 342.447 301.55 358.72 345.979L106.115 407.701L102.391 401.472C150.241 312.702 206.762 245.018 269.91 198.443C333.349 152.709 389.381 122.465 438.585 109.508H438.592C486.513 96.5141 523.728 90.7103 546.872 90.7103L546.868 90.707Z" stroke="currentColor" stroke-width="0.697471"/>
<path d="M501.733 359.086C450.563 392.342 410.932 425.518 384.082 457.067C357.246 488.6 343.096 518.61 343.096 545.52C343.096 590.704 372.349 612.907 399.6 612.907C414.241 612.907 433.391 607.38 451.884 596.4C470.388 585.414 488.291 568.934 500.392 546.957L500.506 546.748V546.448L503.168 359.879L503.195 358.131L501.733 359.082V359.086ZM549.108 80.7402C636.077 80.7402 689.275 98.4618 720.768 131.496C752.265 164.536 762.26 213.112 762.26 275.37C762.26 305.567 760.804 336.849 757.802 369.073V369.104L744.808 585.994V586.021V605.308L746.105 604.752L850.085 560.154V560.353L850.857 559.962L855.278 564.753L824.832 601.371L824.826 601.377C780.18 656.239 746.56 694.746 715.646 719.55C684.776 744.317 656.653 755.375 622.982 755.375C589.312 755.375 566.007 746.372 551.157 725.428C536.246 704.397 529.634 671.147 529.634 622.284C529.634 606.408 529.634 596.026 531.073 587.671L531.262 586.581H522.591L522.329 587.077C467.045 691.568 381.474 756.836 267.183 756.836C218.42 756.836 177.605 744.223 149.003 721.926C120.425 699.649 103.984 667.665 103.984 628.759C103.984 578.47 128.269 534.155 171.183 495.011C214.106 455.856 275.617 421.924 349.91 392.45L521.998 333.37L522.628 333.154V332.49C522.628 272.833 510.757 227.112 490.791 196.275C470.805 165.407 442.709 149.463 410.43 149.463C386.835 149.463 366.738 155.834 352.531 168.815C338.311 181.809 330.109 201.316 330.109 227.331C330.109 260.021 338.486 297.988 355.251 343.77L94.9701 407.368L91.132 400.95C140.437 309.484 198.673 239.742 263.739 191.753C329.105 144.628 386.839 113.467 437.539 100.115H437.546C486.923 86.7261 525.27 80.7436 549.114 80.7436L549.108 80.7402Z" stroke="currentColor" stroke-width="0.697471"/>
<path d="M502.57 357.327C449.895 391.565 409.094 425.716 381.452 458.197C353.824 490.66 339.257 521.555 339.257 549.258C339.257 595.775 369.371 618.632 397.428 618.632C412.501 618.632 432.218 612.94 451.254 601.64C470.303 590.329 488.735 573.363 501.19 550.739L501.306 550.523V550.213L504.047 358.143L504.073 356.345L502.568 357.323L502.57 357.327ZM551.345 70.7718C640.878 70.7718 695.645 89.0164 728.065 123.022C760.492 157.038 770.78 207.044 770.78 271.138C770.78 302.225 769.284 334.429 766.191 367.605V367.635L752.813 590.923V590.95V610.804L754.147 610.23L861.193 564.317V564.523L861.989 564.121L866.538 569.054L835.196 606.752L835.189 606.758C789.229 663.237 754.616 702.881 722.792 728.414C691.012 753.909 662.059 765.294 627.395 765.294C592.731 765.294 568.739 756.025 553.454 734.464C538.101 712.811 531.295 678.579 531.295 628.276C531.295 611.931 531.295 601.241 532.777 592.64L532.973 591.517H524.049L523.78 592.026C466.869 699.597 378.771 766.792 261.109 766.792C210.907 766.792 168.89 753.805 139.445 730.853C110.024 707.918 93.0982 674.992 93.0982 634.94C93.0982 583.169 118.098 537.546 162.278 497.247C206.469 456.938 269.794 422.008 346.276 391.663L523.439 330.839L524.087 330.616V329.931C524.087 268.516 511.865 221.446 491.309 189.697C470.734 157.919 441.811 141.506 408.578 141.506C384.289 141.506 363.599 148.066 348.971 161.428C334.33 174.803 325.889 194.887 325.889 221.672C325.889 255.326 334.512 294.414 351.771 341.542L83.8146 407.016L79.8653 400.409C130.623 306.247 190.578 234.447 257.565 185.044C324.858 136.529 384.294 104.45 436.491 90.7035H436.496C487.329 76.9197 526.806 70.7617 551.355 70.7617L551.345 70.7718Z" stroke="currentColor" stroke-width="0.697471"/>
<path d="M503.412 355.566C449.227 390.786 407.257 425.916 378.823 459.324C350.403 492.716 335.418 524.494 335.418 552.993C335.418 600.844 366.396 624.355 395.254 624.355C410.758 624.355 431.04 618.501 450.622 606.877C470.217 595.242 489.178 577.791 501.99 554.519L502.112 554.296V553.979L504.932 356.409L504.959 354.56L503.409 355.569L503.412 355.566ZM553.584 60.8047C645.682 60.8047 702.017 79.5723 735.367 114.553C768.721 149.541 779.305 200.981 779.305 266.914C779.305 298.892 777.765 332.02 774.584 366.144V366.178L760.822 595.86V595.89V616.315L762.197 615.724L872.31 568.498V568.707L873.128 568.292L877.809 573.367L845.567 612.144L845.561 612.151C798.284 670.249 762.679 711.027 729.945 737.292C697.256 763.52 667.474 775.228 631.816 775.228C596.157 775.228 571.477 765.696 555.754 743.517C539.964 721.247 532.961 686.033 532.961 634.289C532.961 617.479 532.961 606.482 534.488 597.635L534.687 596.481H525.507L525.231 597.007C466.689 707.662 376.07 776.777 255.04 776.777C203.399 776.777 160.178 763.419 129.891 739.809C99.6283 716.216 82.2169 682.349 82.2169 641.149C82.2169 587.893 107.934 540.968 153.378 499.511C198.833 458.049 263.973 422.116 342.646 390.904L524.884 328.339L525.551 328.11V327.404C525.551 264.228 512.979 215.811 491.837 183.155C470.672 150.465 440.921 133.584 406.738 133.584C381.755 133.584 360.473 140.329 345.427 154.076C330.367 167.836 321.683 188.493 321.683 216.044C321.683 250.664 330.552 290.868 348.307 339.349L72.6772 406.699L68.6133 399.903C120.827 303.046 182.496 229.187 251.4 178.37C320.621 128.468 381.758 95.4684 435.448 81.3303H435.456C487.744 67.1517 528.351 60.8182 553.601 60.8182L553.584 60.8047Z" stroke="currentColor" stroke-width="0.697471"/>
<path d="M504.258 353.805C448.563 390.004 405.427 426.112 376.201 460.451C346.989 494.774 331.589 527.437 331.589 556.729C331.589 605.912 363.43 630.078 393.09 630.078C409.026 630.078 429.873 624.062 449.997 612.11C470.138 600.152 489.625 582.215 502.794 558.294L502.919 558.065V557.738L505.818 354.665L505.845 352.765L504.25 353.801L504.258 353.805ZM555.824 50.8374C650.486 50.8374 708.391 70.1246 742.668 106.08C776.952 142.043 787.829 194.914 787.829 262.683C787.829 295.548 786.247 329.601 782.978 364.677V364.71L768.834 600.787V600.817V621.808L770.246 621.201L883.422 572.659V572.875L884.261 572.45L889.073 577.663L855.936 617.519L855.928 617.526C807.333 677.24 770.739 719.155 737.092 746.153C703.493 773.11 672.881 785.146 636.229 785.146C599.576 785.146 574.212 775.347 558.051 752.55C541.819 729.659 534.626 693.467 534.626 640.279C534.626 622.999 534.625 611.695 536.192 602.602L536.397 601.414H526.962L526.676 601.954C466.502 715.69 373.361 786.731 248.96 786.731C195.88 786.731 151.456 773.002 120.327 748.734C89.2213 724.483 71.3247 689.674 71.3247 647.328C71.3247 592.59 97.7569 544.356 144.469 501.745C191.19 459.129 258.139 422.194 339.005 390.112L526.319 325.805L527.002 325.569V324.843C527.002 259.909 514.08 210.142 492.349 176.579C470.598 142.978 440.014 125.628 404.878 125.628C379.197 125.628 357.321 132.562 341.857 146.69C326.377 160.831 317.449 182.065 317.449 210.382C317.449 245.964 326.564 287.288 344.815 337.119L61.5087 406.345L57.3302 399.36C110.997 299.803 174.385 223.893 245.21 171.659C316.358 120.367 379.197 86.4493 434.383 71.9164H434.389C488.133 57.343 529.87 50.834 555.827 50.834L555.824 50.8374Z" stroke="currentColor" stroke-width="0.697471"/>
<path d="M505.097 352.046C447.892 389.227 403.587 426.313 373.573 461.584C343.572 496.835 327.752 530.385 327.752 560.47C327.752 610.986 360.455 635.807 390.92 635.807C407.287 635.807 428.698 629.626 449.372 617.353C470.058 605.071 490.075 586.648 503.601 562.08L503.729 561.844V561.51L506.704 352.937L506.735 350.983L505.097 352.046ZM558.059 40.8691C655.286 40.8691 714.758 60.6793 749.965 97.6105C785.175 134.548 796.349 188.854 796.349 258.454C796.349 292.21 794.725 327.184 791.362 363.211V363.245L776.835 605.719V605.749V627.311L778.284 626.69L894.526 576.832V577.055L895.389 576.619L900.329 581.974L866.294 622.911L866.288 622.918C816.379 684.251 778.793 727.3 744.233 755.026C709.723 782.712 678.281 795.075 640.637 795.075C602.994 795.075 576.939 785.01 560.34 761.596C543.67 738.084 536.277 700.91 536.277 646.284C536.277 628.536 536.277 616.928 537.888 607.588L538.1 606.37H528.409L528.115 606.924C466.311 723.74 370.648 796.705 242.875 796.705C188.359 796.705 142.73 782.604 110.758 757.678C78.81 732.773 60.4315 697.019 60.4315 653.522C60.4315 597.3 87.5815 547.759 135.556 503.999C183.544 460.228 252.307 422.295 335.364 389.342L527.752 323.291L528.456 323.048V322.305C528.456 255.613 515.182 204.5 492.861 170.022C470.52 135.51 439.107 117.691 403.021 117.691C376.646 117.691 354.177 124.814 338.295 139.323C322.397 153.849 313.228 175.657 313.228 204.743C313.228 241.29 322.592 283.734 341.335 334.915L50.356 406.014L46.0663 398.84C101.188 296.587 166.291 218.618 239.033 164.971C312.109 112.288 376.65 77.4527 433.332 62.525H433.339C488.541 47.5569 531.408 40.8691 558.066 40.8691H558.059Z" stroke="currentColor" stroke-width="0.697471"/>
<path d="M505.935 350.285C447.224 388.445 401.75 426.51 370.94 462.712C340.148 498.894 323.912 533.328 323.912 564.206C323.912 616.055 357.478 641.531 388.746 641.531C405.544 641.531 427.521 635.187 448.737 622.591C469.966 609.985 490.512 591.075 504.395 565.86L504.53 565.617V565.273L507.586 351.2L507.616 349.196L505.938 350.285H505.935ZM560.295 30.9023C660.086 30.9023 721.129 51.2355 757.263 89.1419C793.403 127.055 804.87 182.791 804.87 254.227C804.87 288.874 803.202 324.769 799.751 361.748V361.785L784.84 610.653V610.683V632.812L786.33 632.174L905.638 581.003V581.233L906.525 580.784L911.596 586.281L876.662 628.297L876.655 628.304C825.429 691.254 786.852 735.44 751.382 763.898C715.963 792.316 683.691 805.003 645.054 805.003C606.417 805.003 579.678 794.671 562.641 770.643C545.529 746.51 537.944 708.358 537.944 652.291C537.944 634.077 537.944 622.159 539.595 612.573L539.811 611.321H529.863L529.563 611.891C466.132 731.789 367.941 806.68 236.801 806.68C180.847 806.68 134.015 792.205 101.2 766.624C68.4066 741.061 49.5462 704.363 49.5462 659.721C49.5462 602.018 77.4105 551.172 126.652 506.253C175.904 461.325 246.483 422.393 331.73 388.573L529.189 320.781L529.91 320.531V319.769C529.91 251.319 516.287 198.856 493.379 163.47C470.448 128.05 438.21 109.758 401.17 109.758C374.098 109.758 351.039 117.067 334.736 131.961C318.42 146.869 309.008 169.253 309.008 199.105C309.008 236.617 318.618 280.179 337.856 332.709L39.2011 405.684L34.7969 398.318C91.3713 293.368 158.192 213.341 232.852 158.28C307.856 104.208 374.101 68.4544 432.276 53.1319H432.283C488.941 37.7689 532.94 30.9057 560.299 30.9057L560.295 30.9023Z" stroke="currentColor" stroke-width="0.697471"/>
<path d="M506.779 348.523C446.558 387.664 399.914 426.708 368.316 463.838C336.732 500.951 320.079 536.27 320.079 567.94C320.079 621.119 354.507 647.252 386.58 647.252C403.81 647.252 426.353 640.747 448.115 627.827C469.89 614.897 490.964 595.501 505.205 569.638L505.343 569.391V569.037L508.477 349.461L508.507 347.406L506.785 348.526L506.779 348.523ZM562.537 20.9336C664.893 20.9336 727.503 41.7899 764.566 80.668C801.637 119.553 813.397 176.723 813.397 249.998C813.397 285.536 811.685 322.355 808.147 360.279V360.316L792.852 615.578V615.612V638.31L794.378 637.656L916.753 585.169V585.402L917.663 584.943L922.866 590.582L887.036 633.678L887.029 633.684C834.485 698.251 794.917 743.574 758.534 772.764C722.202 801.911 689.104 814.926 649.473 814.926C609.842 814.926 582.415 804.33 564.94 779.682C547.391 754.928 539.606 715.793 539.606 658.286C539.606 639.603 539.606 627.381 541.301 617.549L541.524 616.266H531.32L531.01 616.85C465.948 739.828 365.237 816.643 230.724 816.643C173.331 816.643 125.298 801.796 91.6387 775.558C58.0021 749.337 38.6565 711.697 38.6565 665.908C38.6565 606.724 67.2385 554.568 117.744 508.496C168.263 462.414 240.654 422.48 328.092 387.792L530.626 318.259L531.367 318.003V317.22C531.367 247.008 517.397 193.199 493.896 156.906C470.375 120.575 437.308 101.814 399.318 101.814C371.551 101.814 347.896 109.312 331.175 124.587C314.438 139.879 304.787 162.838 304.787 193.456C304.787 231.929 314.643 276.614 334.377 330.494L28.0486 405.345L23.5331 397.79C81.5598 290.142 150.1 208.059 226.68 151.585C303.611 96.1221 371.558 59.4507 431.229 43.7335H431.236C489.35 27.9757 534.478 20.937 562.541 20.937L562.537 20.9336Z" stroke="currentColor" stroke-width="0.697471"/>
<path d="M507.621 346.766C445.891 386.889 398.082 426.907 365.688 464.969C333.312 503.01 316.241 539.213 316.241 571.68C316.241 626.191 351.532 652.979 384.407 652.979C402.068 652.979 425.174 646.311 447.482 633.064C469.803 619.81 491.403 599.929 506.001 573.417L506.142 573.164V572.803L509.353 347.727L509.384 345.622L507.618 346.769L507.621 346.766ZM564.775 10.9668C669.695 10.9668 733.875 32.3461 771.865 72.1994C809.862 112.059 821.919 170.66 821.919 245.771C821.919 282.199 820.164 319.94 816.538 358.815V358.852L800.862 620.512V620.546V643.811L802.425 643.14L927.867 589.337V589.577L928.797 589.104L934.128 594.884L897.398 639.06L897.391 639.067C843.533 705.253 802.971 751.71 765.678 781.629C728.436 811.508 694.51 824.85 653.884 824.85C613.259 824.85 585.149 813.988 567.235 788.722C549.248 763.351 541.268 723.234 541.268 664.286C541.268 645.134 541.268 632.605 543.007 622.526L543.236 621.21H532.78L532.463 621.808C465.769 747.866 362.534 826.608 224.652 826.608C165.823 826.608 116.585 811.39 82.0791 784.494C47.6001 757.618 27.7693 719.033 27.7693 672.097C27.7693 611.428 57.0657 557.967 108.838 510.741C160.624 463.505 234.828 422.571 324.453 387.014L532.062 315.739L532.82 315.479V314.676C532.82 242.707 518.499 187.548 494.412 150.344C470.302 113.102 436.406 93.8722 397.465 93.8722C369.001 93.8722 344.756 101.559 327.617 117.218C310.462 132.892 300.568 156.427 300.568 187.815C300.568 227.253 310.674 273.055 330.899 328.285L16.8918 405.005L12.2618 397.261C71.7442 286.916 141.999 202.779 220.497 144.884C299.355 88.0348 369.004 50.4422 430.168 34.3335H430.175C489.745 18.181 536.005 10.9668 564.772 10.9668H564.775Z" stroke="currentColor" stroke-width="0.697471"/>
<path d="M508.46 345.005C445.221 386.107 396.242 427.107 363.06 466.097C329.892 505.069 312.406 542.156 312.406 575.416C312.406 631.26 348.557 658.703 382.24 658.703C400.332 658.703 424.005 651.87 446.858 638.302C469.725 624.724 491.854 604.357 506.806 577.194L506.951 576.934V576.563L510.239 345.987L510.27 343.827L508.46 345.002V345.005ZM567.013 1C674.497 1 740.244 22.9023 779.164 63.7274C818.091 104.562 830.441 164.594 830.441 241.54C830.441 278.859 828.645 317.522 824.928 357.348V357.385L808.868 625.439V625.473V649.309L810.472 648.62L938.98 593.502V593.748L939.934 593.266L945.396 599.187L907.769 644.443L907.763 644.45C852.587 712.252 811.035 759.846 772.832 790.497C734.68 821.105 699.925 834.774 658.309 834.774C616.692 834.774 587.891 823.646 569.54 797.762C551.111 771.77 542.939 730.675 542.939 670.286C542.939 650.665 542.939 637.833 544.718 627.508L544.951 626.158H534.239L533.915 626.772C465.591 755.911 359.832 836.576 218.583 836.576C158.315 836.576 107.874 820.987 72.5259 793.433C37.2044 765.899 16.8883 726.373 16.8883 678.29C16.8883 616.14 46.9024 561.372 99.9385 512.989C152.988 464.599 229.009 422.663 320.824 386.235L533.507 313.216L534.286 312.95V312.126C534.286 238.399 519.614 181.89 494.937 143.778C470.237 105.625 435.512 85.9266 395.618 85.9266C366.46 85.9266 341.622 93.7988 324.062 109.843C306.486 125.901 296.349 150.01 296.349 182.164C296.349 222.567 306.701 269.489 327.422 326.069L5.74121 404.668L1 396.736C61.9348 283.695 133.908 197.499 214.327 138.19C295.113 79.9508 366.463 41.4371 429.123 24.937H429.13C490.152 8.39299 537.544 1 567.013 1Z" stroke="currentColor" stroke-width="0.697471"/>
</svg>
