<svg viewBox="0 0 20 21" fill="none" xmlns="http://www.w3.org/2000/svg">
<path d="M18.5236 0.97998H1.47639C1.08483 0.97998 0.709301 1.13553 0.432425 1.41241C0.155548 1.68928 0 2.06481 0 2.45637V19.5036C0 19.8952 0.155548 20.2707 0.432425 20.5476C0.709301 20.8244 1.08483 20.98 1.47639 20.98H18.5236C18.9152 20.98 19.2907 20.8244 19.5676 20.5476C19.8445 20.2707 20 19.8952 20 19.5036V2.45637C20 2.06481 19.8445 1.68928 19.5676 1.41241C19.2907 1.13553 18.9152 0.97998 18.5236 0.97998ZM5.96111 18.0175H2.95417V8.46609H5.96111V18.0175ZM4.45556 7.14248C4.11447 7.14056 3.7816 7.03764 3.49895 6.84672C3.21629 6.6558 2.99653 6.38542 2.8674 6.06972C2.73826 5.75402 2.70554 5.40714 2.77336 5.07286C2.84118 4.73858 3.0065 4.43188 3.24846 4.19146C3.49042 3.95105 3.79818 3.7877 4.13289 3.72203C4.4676 3.65636 4.81426 3.69131 5.12913 3.82247C5.44399 3.95363 5.71295 4.17512 5.90205 4.45899C6.09116 4.74286 6.19194 5.07639 6.19167 5.41748C6.19488 5.64584 6.15209 5.87251 6.06584 6.08398C5.97959 6.29546 5.85165 6.4874 5.68964 6.64837C5.52763 6.80934 5.33487 6.93605 5.12285 7.02094C4.91083 7.10583 4.68389 7.14716 4.45556 7.14248ZM17.0444 18.0258H14.0389V12.8078C14.0389 11.2689 13.3847 10.7939 12.5403 10.7939C11.6486 10.7939 10.7736 11.4661 10.7736 12.8466V18.0258H7.76667V8.47304H10.6583V9.79665H10.6972C10.9875 9.20915 12.0042 8.20498 13.5556 8.20498C15.2333 8.20498 17.0458 9.20081 17.0458 12.1175L17.0444 18.0258Z" fill="currentColor"/>
</svg>