<svg version="1.1" id="Layer_1" xmlns="http://www.w3.org/2000/svg" viewBox="0 0 1330.6 196.3">
<path fill="currentColor" d="M1314.9,73.5c-5.3-11.7-15.5-17.3-31.4-17.3c-16.4,0-28.6,5.3-39.6,17.1l-6.5,7V60.3h-47.2v124.3h48.6v-64.1
	c0-4.4,0.5-12.5,3.7-17.5c2.9-4.4,7.4-6.6,13.3-6.6c6.2,0,10.6,2.2,12.7,6.5c1.7,3,2.5,7.4,2.5,14.1v67.5h48.4v-79.9
	C1319.4,94.7,1318.9,82,1314.9,73.5z"/>
<path fill="currentColor" d="M994.8,73.5c-5.3-11.7-15.5-17.3-31.4-17.3c-16.4,0-28.6,5.3-39.6,17.1l-6.5,7V11.3h-47.2v173.4h48.6v-64.1
	c0-4.4,0.5-12.5,3.7-17.5c2.9-4.4,7.4-6.6,13.3-6.6c6.2,0,10.6,2.2,12.7,6.5c1.7,3,2.5,7.4,2.5,14.1v67.5h48.4v-79.9
	C999.3,94.7,998.7,82,994.8,73.5z"/>
<rect x="645.6" y="11.3" fill="currentColor" width="49.6" height="173.3"/>
<rect x="1132.3" y="60.3" fill="currentColor" width="49.6" height="124.3"/>
<rect x="441.7" y="60.3" fill="currentColor" width="49.6" height="124.3"/>
<path fill="currentColor" d="M240.5,54.2c-43.9,0-71.2,26.2-71.2,68.4c0,42,25.3,66.1,69.5,66.1c21.5,0,40.1-6.9,52.6-19.3
	c11.4-11.4,17.1-26.9,17.1-45.9C308.4,78.7,284.3,54.2,240.5,54.2z M239.6,153.3c-6.3,0-20.8-3.2-20.8-33.2
	c0-26.8,13-30.7,20.8-30.7c12.9,0,19.5,10.9,19.5,32.4C259,147.8,248.4,153.3,239.6,153.3z"/>
<path fill="currentColor" d="M643.8,149.4l-20.7,9.1v-3.6l2.5-43.1c0.6-6.5,0.8-12.7,0.8-18.7c0-24.7-7.8-38.8-42.3-38.8
	c-4.8,0-12.3,1.2-22.1,3.8c-10.1,2.6-21.6,8.9-34.5,18.2c-12.9,9.6-24.4,23.5-34.2,41.7l0.8,1.4l51.8-12.7c-3.4-9.1-5-16.8-5-23.2
	c0-10.3,6.4-15.3,15.7-15.3c12.6,0,22,12.5,22,36.2l-34,11.7c-29.4,11.7-48.8,27.1-48.8,47.2c0,15.6,13.2,25.6,32.5,25.6
	c22.7,0,39.6-12.9,50.6-33.8h1.4c-0.3,1.7-0.3,3.8-0.3,6.9c0,19.4,5.2,26.6,18.6,26.6s22.4-8.9,40.1-30.7l6.2-7.4L643.8,149.4z
	 M578.1,147c-5.3,8.6-15.8,12.9-22.3,12.9c-5.9,0-12.3-4.3-12.3-13.2c0-10.5,12.5-23.7,35.2-36.9L578.1,147z"/>
<path fill="currentColor" d="M445.8,47.2h41.5c2.2,0,4.1-1.8,4.1-4.1V23.4c0-2.2-1.8-4.1-4.1-4.1h-41.5c-2.2,0-4.1,1.8-4.1,4.1v19.8
	C441.8,45.4,443.6,47.2,445.8,47.2z"/>
<path fill="currentColor" d="M1136.3,47.2h41.5c2.2,0,4.1-1.8,4.1-4.1V23.4c0-2.2-1.8-4.1-4.1-4.1h-41.5c-2.2,0-4.1,1.8-4.1,4.1v19.8
	C1132.3,45.4,1134.1,47.2,1136.3,47.2z"/>
<path fill="currentColor" d="M164.3,112.7c-2-5.2-5.3-10-9.8-14.1c-4.6-4.2-10.6-7.9-18-11c-7.6-3.2-16.9-5.9-27.8-8.2l-24.8-5
	c-7.2-1.5-12.1-3.3-14.9-5.5c-3.2-2.5-4.9-6-4.9-10c0-4.6,2.2-8.5,6.2-11.4c3.8-2.7,9.5-4,17.4-4c7.3,0,13.1,1.5,17.2,4.3
	c3.7,2.5,6.4,6.7,8.3,12.5h50.3c0,0,0.4-22-18.7-37.5c-0.9-0.8-1.9-1.5-3-2.2c0,0,0,0,0,0c-0.7-0.5-1.3-0.9-2-1.4
	c0,0-0.1-0.1-0.1-0.1c-4.3-2.8-9.1-4.9-13.8-6.5c-0.1,0-0.2-0.1-0.3-0.1c-0.9-0.3-1.7-0.6-2.6-0.8c-0.2-0.1-0.4-0.1-0.6-0.2
	c-0.4-0.1-0.9-0.2-1.4-0.4c-0.1,0-0.1,0-0.2-0.1c-1.2-0.3-2.4-0.6-3.7-0.9c-0.2-0.1-0.5-0.1-0.7-0.2c-0.5-0.1-1.1-0.2-1.6-0.3
	c-13.7-2.8-25.2-2.2-25.2-2.2c-11.7,0-22.3,1.2-31.7,3.7c-9.2,2.4-17.1,6-23.5,10.7C28.2,26.5,23.3,32.2,19.8,39
	c-3.4,6.7-5.1,14.7-5.1,23.6c0,13.8,4.4,24.5,13.4,32.8c9.2,8.4,24.3,14.7,45,18.7l25.1,4.8c7.1,1.5,11.9,3.4,14.7,5.9
	c3.1,2.7,4.8,6.5,4.8,10.9c0,5.6-2.3,10.1-6.7,13.1c-4,2.7-9.9,4-18,4c-9.8,0-17.3-2.1-22.3-6.1c-4.4-3.5-7.4-8.4-8.9-14.5H11.2
	c0.9,7.9,2.8,15.1,5.6,21.6c3.3,7.4,8.1,13.8,14.3,18.9c6.3,5.2,14.3,9.2,23.8,12c9.7,2.8,21.3,4.3,34.4,4.3
	c25.9,0,45.6-5.1,58.7-15.2c13-10,19.3-23.8,19.3-42.2C167.4,124.3,166.4,118,164.3,112.7z"/>
<path fill="currentColor" d="M394.1,138.6c-0.8,3.8-2.2,6.9-4.2,9.3c-2.8,3.4-6.9,5.2-12.2,5.2c-6.4,0-11.6-2.8-14.9-8.1
	c-3.1-4.9-4.6-12.6-4.6-23.5c0-10.4,1.4-17.9,4.4-22.8c3.2-5.4,8.4-8.3,14.8-8.3c5.1,0,9.1,1.7,11.7,5c1.7,2.2,3,4.9,3.9,8.2h44.1
	c0,0-0.5-8.4-4.8-18.5c-2.6-5.9-6.2-11.2-10.7-15.7c-4.5-4.5-10.5-8.1-17.9-10.8c-7.5-2.7-16.6-4.1-27.1-4.1
	c-20.7,0-37.1,6-48.7,17.8c-11.6,11.8-17.5,28.8-17.5,50.5c0,9.7,1.3,18.8,4,27c2.6,8,6.6,15,11.9,20.8c5.3,5.7,12.2,10.3,20.4,13.5
	c8.3,3.3,18.2,4.9,29.6,4.9c10.5,0,19.6-1.4,27.1-4.1c7.4-2.7,13.5-6.4,18.4-11.2c4.8-4.8,8.7-10.5,11.4-17.1
	c2.3-5.5,3.9-11.5,4.9-17.9L394.1,138.6L394.1,138.6z"/>
<path fill="currentColor" d="M1112.6,66.1c-8.5-7.7-24.5-12-44.1-12c-56.1,0-58.6,31.6-59.9,44.3h40.8c2-8.8,7.3-13.3,15.8-13.3
	c9.8,0,14.7,5.1,14.7,15.2v7.8l-4.5,0.5c-13.4,1.6-35.9,4.2-51.4,11.5c-14.7,6.9-21,16.4-21,31.7c0,22.9,13.4,36.6,35.9,36.6
	c17,0,28-4.8,36.7-16l5.6-7.2l2.4,19.5h40.5v-80.2C1124,84.1,1120.8,73.4,1112.6,66.1z M1079.9,134.3c0,14.3-8.3,23.5-21.2,23.5
	c-8.7,0-12.6-6.1-12.6-12.1c0-6.5,3.6-9.6,6.6-11.2c5-2.4,13.8-4.7,22.9-5.8l4.2-0.5V134.3z"/>
<path fill="currentColor" d="M806.7,140.2c-5,4.6-11.6,6.9-19.6,6.9c-4.2,0-8.3-0.7-12.2-1.9c-4.3-1.4-8.1-4.1-11.3-8
	c-3.1-3.8-5.5-8.9-7.3-15.4c-1.7-6.1-2.5-14.1-2.6-23.8c0-9.6,0.9-17.7,2.6-23.8c1.8-6.4,4.2-11.6,7.3-15.4c3.2-3.9,7-6.6,11.3-8
	c4-1.3,8.1-1.9,12.2-1.9c8,0,14.6,2.3,19.6,6.9c4.3,4,7.2,9.8,8.7,17.3h51.1c-0.8-8.5-2.7-16.5-5.6-23.8c-3.4-8.4-8.4-15.7-15-21.9
	c-6.6-6.2-14.9-11.1-24.8-14.7c-10-3.6-21.9-5.4-35.5-5.4c-15.1,0-28.3,2.2-39.1,6.5c-10.8,4.3-19.7,10.4-26.6,18
	c-6.9,7.7-12.1,17.1-15.5,27.8c-3.4,10.9-5.1,23.1-5.1,36.3c0,0.7,0,1.3,0,2c0,0.7,0,1.3,0,2c0,13.2,1.7,25.4,5.1,36.3
	c3.3,10.8,8.6,20.1,15.5,27.8c6.9,7.7,15.8,13.7,26.6,18c10.9,4.3,24,6.5,39.1,6.5c13.6,0,25.5-1.8,35.5-5.4
	c9.9-3.6,18.2-8.5,24.8-14.7c6.5-6.1,11.6-13.5,15-21.9c3-7.4,4.9-15.3,5.6-23.8h-51.1C814,130.4,811,136.2,806.7,140.2z"/>
</svg>
