<svg xmlns="http://www.w3.org/2000/svg" viewBox="0 0 1330.567 196.271"><path fill="currentColor" d="M778.774 116.304 747.139 12.29h-62.311v171.119h48.65V98.568l25.405 84.841h38.345l25.404-84.841v84.841h49.85V12.29H810.41l-31.636 104.014zm90.764-101.07v165.23h-43.961V78.471l-5.765 19.252-24.775 82.741h-33.961L736.3 97.723l-5.765-19.251v101.992h-42.762V15.234h57.185l31 101.927 2.817 9.261 2.817-9.261 31-101.927h56.946zm258.472 70.337c-21.148 0-23.431 23.246-23.431 33.241 0 13.556 2.949 23.469 8.765 29.462 5.213 5.373 11.426 6.175 14.666 6.175 14.538 0 19.317-12.703 20.874-20.309.825-3.524 1.244-7.68 1.244-12.354v-3.318c0-7.019-.767-12.5-2.346-16.75-2.275-7.387-7.551-16.147-19.772-16.147zm19.173 32.898v3.318c0 4.544-.402 8.437-1.176 11.723-2.954 14.516-11.005 17.996-17.998 17.996-6.16 0-20.487-3.185-20.487-32.693 0-26.362 12.835-30.297 20.487-30.297 8.453 0 14.12 4.765 16.983 14.151 1.454 3.87 2.191 9.123 2.191 15.802z"></path><path fill="currentColor" d="M1149.872 67.531c-3.001-4.266-7.148-7.583-12.438-9.951-5.294-2.37-11.177-3.554-17.651-3.554-15.796 0-28.275 6.081-37.434 18.243-9.164 12.165-13.742 28.827-13.742 49.992 0 20.533 4.3 36.408 12.912 47.623 8.607 11.217 20.65 16.82 36.133 16.82 14.37 0 26.627-7.786 35.38-23.355l2.324 19.565h42.007V12.29h-47.491v55.241zm2.944 0V15.234h41.603V179.97h-36.448l-2.016-16.969-1.065-8.966-4.425 7.871c-8.038 14.297-19.384 21.854-32.814 21.854-14.651 0-25.707-5.125-33.798-15.668-8.163-10.631-12.302-26.051-12.302-45.83 0-20.414 4.424-36.638 13.149-48.221 8.649-11.487 20.125-17.07 35.082-17.07 6.027 0 11.561 1.109 16.448 3.297 4.777 2.139 8.557 5.153 11.234 8.958l5.352 7.608v-9.303zM1029 56.701c-16.048 0-28.024 5.172-38.833 16.763l-6.363 6.826V60.796H937.46v122.125h47.655v-63.054c0-4.292.467-12.223 3.63-17.172 2.844-4.292 7.222-6.467 13.011-6.467 6.129 0 10.362 2.207 12.503 6.42 1.684 2.975 2.433 7.253 2.433 13.87v66.27h47.528v-78.443c0-9.876-.497-22.283-4.382-30.644-5.17-11.441-15.255-17-30.838-17zm32.276 123.144h-41.64v-63.326c0-7.115-.859-11.827-2.783-15.263-1.875-3.651-6.016-7.972-15.098-7.972-6.743 0-12.09 2.692-15.492 7.825-3.383 5.293-4.093 13.123-4.093 18.758v60.11h-41.767V63.74h40.455v24.026l5.098-5.469 6.362-6.825c10.208-10.946 21.52-15.827 36.681-15.827 14.502 0 23.449 4.852 28.168 15.297 3.641 7.836 4.108 19.83 4.108 29.404v75.499zM627.987 12.667h48.719v170.261h-48.719zm252.617 170.348h48.717V60.778h-48.717v122.237zm2.943-119.293h42.829V180.07h-42.829V63.722zm-455.639-2.944h48.718v122.237h-48.718zm-197.515-6.032c-43.119 0-69.905 25.703-69.905 67.081 0 41.199 24.859 64.827 68.206 64.827 21.072 0 39.386-6.729 51.574-18.949 11.179-11.211 16.822-26.377 16.77-45.085 0-43.769-23.668-67.874-66.645-67.874zm-.908 97.255c-6.135 0-20.404-3.172-20.404-32.561 0-26.255 12.783-30.174 20.404-30.174 12.672 0 19.096 10.687 19.096 31.764 0 25.598-10.384 30.971-19.096 30.971zm376.354 5.116v-3.528l2.475-42.331c.55-6.35.825-12.465.825-18.344 0-24.223-7.699-38.098-41.521-38.098-4.675 0-12.099 1.176-21.723 3.762-9.899 2.587-21.172 8.701-33.821 17.873-12.648 9.407-23.922 23.047-33.546 40.92l.825 1.411 50.87-12.464c-3.3-8.937-4.95-16.462-4.95-22.812 0-10.112 6.323-15.051 15.397-15.051 12.374 0 21.585 12.254 21.585 35.536l-33.407 11.523c-28.872 11.523-47.845 26.55-47.845 46.303 0 15.286 12.924 25.163 31.897 25.163 22.272 0 38.906-12.699 49.631-33.159h1.375c-.275 1.646-.275 3.762-.275 6.82 0 19.048 5.088 26.104 18.287 26.104s21.997-8.701 39.321-30.102l6.049-7.29-1.1-1.176-20.349 8.94zm-44.134-11.289c-5.224 8.466-15.534 12.699-21.859 12.699-5.774 0-12.099-4.233-12.099-12.934 0-10.348 12.235-23.257 34.507-36.191l-.549 36.426zm-129.79-97.936h40.705c2.203 0 3.989-1.786 3.989-3.989V24.498c0-2.203-1.786-3.989-3.989-3.989h-40.704c-2.203 0-3.989 1.786-3.989 3.989v19.406c-.001 2.203 1.785 3.988 3.988 3.988zm452.695.001h40.705c2.203 0 3.988-1.786 3.988-3.989V24.498c0-2.203-1.786-3.989-3.989-3.989H884.61c-2.203 0-3.989 1.786-3.989 3.989v19.406c0 2.203 1.786 3.989 3.989 3.989zm-1.045-23.396c0-.576.468-1.044 1.044-1.044h40.704c.576 0 1.045.469 1.045 1.045v19.406c0 .576-.468 1.044-1.044 1.044H884.61c-.576 0-1.044-.468-1.044-1.044V24.497zM146.05 98.345c-4.468-4.138-10.409-7.77-17.653-10.802-7.437-3.112-16.628-5.829-27.291-8.072L76.8 74.527c-7.056-1.446-11.826-3.223-14.585-5.419-3.146-2.494-4.807-5.882-4.807-9.798 0-4.479 2.114-8.34 6.117-11.161 3.707-2.613 9.286-3.883 17.05-3.883 7.141 0 12.826 1.425 16.899 4.239 3.596 2.487 6.316 6.621 8.109 12.313h49.383s.418-21.614-18.36-36.85c-.921-.747-1.895-1.463-2.897-2.162-.01-.008-.022-.015-.032-.022-.652-.454-1.313-.901-1.999-1.334-.046-.03-.089-.061-.135-.091-4.262-2.7-8.893-4.767-13.551-6.358-.091-.032-.181-.064-.272-.095-.836-.282-1.674-.553-2.51-.806-.211-.065-.412-.137-.625-.2-.431-.129-.887-.24-1.326-.363-.071-.019-.141-.039-.212-.058-1.187-.328-2.404-.633-3.652-.916-.242-.056-.483-.11-.724-.164-.523-.114-1.04-.232-1.572-.338-13.453-2.757-24.751-2.205-24.751-2.205-11.452 0-21.917 1.206-31.102 3.585-9.028 2.34-16.778 5.882-23.036 10.522-6.175 4.576-11.003 10.253-14.353 16.874-3.35 6.615-5.047 14.413-5.047 23.18 0 13.547 4.288 24.063 13.113 32.144 8.981 8.232 23.842 14.416 44.155 18.378l24.622 4.712c6.932 1.465 11.655 3.349 14.434 5.764 3.066 2.659 4.687 6.352 4.687 10.684 0 5.48-2.267 9.908-6.555 12.808-3.946 2.67-9.711 3.965-17.628 3.965-9.592 0-16.969-2.02-21.92-6-4.303-3.459-7.217-8.247-8.688-14.265H5.364c.877 7.723 2.735 14.825 5.538 21.163 3.204 7.257 7.929 13.497 14.043 18.553 6.169 5.093 14.03 9.058 23.368 11.786 9.51 2.77 20.876 4.177 33.781 4.177 25.377 0 44.768-5.024 57.628-14.933 12.749-9.823 18.947-23.381 18.947-41.458 0-6.919-1.024-13.084-3.043-18.328-1.988-5.137-5.208-9.788-9.576-13.822zm231.052 48.294c-2.749 3.374-6.773 5.082-11.963 5.082-6.294 0-11.353-2.742-14.623-7.928-3.024-4.784-4.493-12.342-4.493-23.107 0-10.228 1.413-17.56 4.319-22.412 3.181-5.319 8.211-8.128 14.543-8.128 5.035 0 8.896 1.636 11.477 4.863 1.692 2.118 2.98 4.82 3.845 8.061h43.24s-.446-8.266-4.718-18.109c-2.503-5.768-6.038-10.953-10.493-15.41-4.409-4.4-10.302-7.963-17.519-10.583-7.332-2.663-16.278-4.012-26.591-4.012-20.305 0-36.374 5.867-47.757 17.434-11.394 11.592-17.173 28.258-17.173 49.539 0 9.528 1.304 18.439 3.878 26.496 2.52 7.899 6.46 14.753 11.715 20.373 5.245 5.62 11.992 10.085 20.054 13.271 8.139 3.212 17.906 4.841 29.03 4.841 10.318 0 19.264-1.35 26.592-4.009 7.224-2.62 13.295-6.316 18.046-10.986 4.759-4.673 8.529-10.332 11.203-16.81 2.237-5.437 3.845-11.33 4.792-17.563h-43.331c-.782 3.682-2.148 6.732-4.073 9.097zm943.791-19.882c-2.873-5.029-7.745-9.256-14.606-12.691-6.866-3.431-16.684-6.503-29.455-9.22l-12.93-2.634c-4.153-.845-7.064-1.949-8.74-3.307-1.676-1.354-2.515-3.136-2.515-5.343 0-5.089 3.431-7.633 10.297-7.633 7.184 0 11.412 3.674 12.691 11.015h47.815c.061-3.195-.284-6.396-1.14-9.475-6.322-22.738-25.871-34.107-58.648-34.107-18.838 0-33.366 3.555-43.581 10.656-10.219 7.105-15.326 17.122-15.326 30.052 0 11.494 3.79 20.396 11.374 26.7 7.58 6.308 20.073 11.056 37.475 14.247l12.692 2.395c3.509.639 6.106 1.598 7.782 2.873 1.676 1.28 2.515 3.034 2.515 5.268 0 2.555-.921 4.392-2.754 5.508-1.837 1.118-4.752 1.676-8.74 1.676-4.472 0-7.866-.797-10.177-2.395-2.316-1.594-3.794-4.071-4.431-7.424h-48.371c2.234 29.694 23.467 44.54 63.696 44.54 19.475 0 34.243-3.513 44.3-10.533 10.057-7.019 15.086-17.32 15.086-30.894.001-7.818-1.435-14.245-4.309-19.274zm-12.461 47.756c-9.509 6.637-23.847 10.003-42.614 10.003-37.285 0-57.095-12.653-60.44-38.652h42.839c.984 2.962 2.672 5.278 5.032 6.902 2.84 1.963 6.717 2.917 11.851 2.917 4.583 0 7.943-.689 10.27-2.105 1.901-1.157 4.168-3.488 4.168-8.023 0-3.144-1.27-5.774-3.676-7.611-2.07-1.575-5.026-2.696-9.02-3.423l-12.707-2.398c-16.821-3.085-28.974-7.666-36.124-13.615-6.939-5.768-10.312-13.761-10.312-24.436 0-12.016 4.6-21.055 14.062-27.635 9.668-6.721 23.765-10.129 41.9-10.129 15.786 0 28.491 2.735 37.765 8.128 9.169 5.332 15.072 13.125 18.046 23.824.505 1.816.827 3.738.964 5.742h-42.455c-2.055-7.219-7.211-11.015-15.038-11.015-11.521 0-13.241 6.627-13.241 10.577 0 3.086 1.248 5.726 3.605 7.63 2.071 1.679 5.344 2.956 10.006 3.906l12.905 2.628c12.473 2.654 22.146 5.673 28.75 8.973 6.307 3.157 10.805 7.033 13.368 11.519 2.603 4.555 3.922 10.549 3.922 17.817.001 12.667-4.522 21.983-13.826 28.476z"></path></svg>