<svg
      xmlns="http://www.w3.org/2000/svg"
      viewBox="0 0 100 100"
      aria-hidden="true"
      focusable="false"
      fill="currentColor"
    >
        <path fill="rgb(239, 35, 86)" d="M82.61,61.56L36.47,87.54C25.23,93.88,10,87.22,10,75.99V24.01  c0-11.24,15.23-17.89,26.47-11.55l46.14,25.99C92.46,44,92.46,56,82.61,61.56" style="transform: translateX(6%) translateY(6%);"/>
        <path fill="rgb(109, 202, 209)" d="M82.61,61.56L36.47,87.54C25.23,93.88,10,87.22,10,75.99V24.01  c0-11.24,15.23-17.89,26.47-11.55l46.14,25.99C92.46,44,92.46,56,82.61,61.56" style="transform: translateX(-6%) translateY(-6%);"/>
        <path fill="currentColor" d="M82.61,61.56L36.47,87.54C25.23,93.88,10,87.22,10,75.99V24.01  c0-11.24,15.23-17.89,26.47-11.55l46.14,25.99C92.46,44,92.46,56,82.61,61.56"/>
</svg>