<svg version="1.1" xmlns="http://www.w3.org/2000/svg" viewBox="0 0 86 408">
<link  href="" id="dark-mode" rel="stylesheet" type="text/css" xmlns=""></link>
<path fill="currentColor" d="M14.3,127.1c-2.4,1.1-3.6,3.3-3.6,6.8c0,3.5,1.1,6.1,3.6,8.5l1.5,1.4h-4.1v10.2h25.9v-10.5H24.1
	c-0.9,0-2.6-0.1-3.7-0.8c-0.9-0.6-1.4-1.6-1.4-2.9c0-1.3,0.5-2.3,1.4-2.7c0.6-0.4,1.5-0.5,3-0.5h14.1v-10.4H20.8
	C18.7,126.1,16,126.2,14.3,127.1z"/>
<path fill="currentColor" d="M14.3,196c-2.4,1.1-3.6,3.3-3.6,6.8c0,3.5,1.1,6.1,3.6,8.5l1.5,1.4H1.3v10.2h36.2v-10.5H24.1
	c-0.9,0-2.6-0.1-3.7-0.8c-0.9-0.6-1.4-1.6-1.4-2.9c0-1.3,0.5-2.3,1.4-2.7c0.6-0.4,1.5-0.5,3-0.5h14.1v-10.4H20.8
	C18.7,195.1,16,195.2,14.3,196z"/>
<path fill="currentColor" d="M1.3,260.5v10.7h36.2v-10.7H1.3z"/>
<path fill="currentColor" d="M11.5,155.7v10.7h26v-10.7H11.5z"/>
<path fill="currentColor" d="M11.5,304.4v10.7h26v-10.7H11.5z"/>
<path fill="currentColor" d="M10.2,358.4c0,9.5,5.5,15.3,14.3,15.3c8.8,0,13.8-5.5,13.8-15c0-4.6-1.4-8.6-4-11.3
	c-2.4-2.5-5.6-3.7-9.6-3.7C15.4,343.8,10.2,349,10.2,358.4z M30.9,358.6c0,1.3-0.7,4.5-6.9,4.5c-5.6,0-6.4-2.8-6.4-4.5
	c0-2.8,2.3-4.2,6.8-4.2C29.8,354.5,30.9,356.7,30.9,358.6z"/>
<path fill="currentColor" d="M30.1,271.6l1.9,4.5h-0.8l-9-0.5c-1.4-0.1-2.7-0.2-3.9-0.2c-5.2,0-8.1,1.7-8.1,9.1c0,1,0.3,2.7,0.8,4.8
	c0.6,2.2,1.9,4.6,3.8,7.4c2,2.8,4.9,5.2,8.7,7.4l0.3-0.2l-2.7-11.2c-1.9,0.7-3.5,1.1-4.9,1.1c-2.2,0-3.2-1.4-3.2-3.4
	c0-2.7,2.6-4.7,7.6-4.7l2.5,7.3c2.5,6.3,5.6,10.5,9.8,10.5c3.3,0,5.4-2.8,5.4-7c0-4.9-2.7-8.5-7.1-10.9v-0.3
	c0.4,0.1,0.8,0.1,1.5,0.1c4.1,0,5.6-1.1,5.6-4s-1.9-4.8-6.4-8.6l-1.6-1.3L30.1,271.6L30.1,271.6z M29.6,285.8
	c1.8,1.1,2.7,3.4,2.7,4.8c0,1.3-0.9,2.7-2.8,2.7c-2.2,0-4.9-2.7-7.7-7.6L29.6,285.8z"/>
<path fill="currentColor" d="M2.9,305.3v8.9c0,0.5,0.4,0.9,0.8,0.9h4.1c0.5,0,0.8-0.4,0.8-0.9v-8.9c0-0.5-0.4-0.9-0.8-0.9H3.8
	C3.3,304.4,2.9,304.8,2.9,305.3z"/>
<path fill="currentColor" d="M2.9,156.6v8.9c0,0.5,0.4,0.9,0.8,0.9h4.1c0.5,0,0.8-0.4,0.8-0.9v-8.9c0-0.5-0.4-0.9-0.8-0.9H3.8
	C3.3,155.7,2.9,156.1,2.9,156.6z"/>
<path fill="currentColor" d="M22.4,374.9c-1.1,0.4-2.1,1.1-2.9,2.1c-0.9,1-1.7,2.3-2.3,3.9c-0.7,1.6-1.2,3.6-1.7,6l-1.1,5.3
	c-0.3,1.5-0.7,2.6-1.2,3.2c-0.5,0.7-1.3,1.1-2.1,1.1c-1,0-1.8-0.5-2.4-1.3c-0.6-0.8-0.8-2-0.8-3.7c0-1.6,0.3-2.8,0.9-3.7
	c0.5-0.8,1.4-1.4,2.6-1.8V375c0,0-4.6-0.1-7.8,4c-0.2,0.2-0.3,0.4-0.5,0.6c0,0,0,0,0,0c-0.1,0.1-0.2,0.3-0.3,0.4c0,0,0,0,0,0
	c-0.6,0.9-1,2-1.4,3c0,0,0,0,0,0.1c-0.1,0.2-0.1,0.4-0.2,0.6c0,0,0,0.1,0,0.1c0,0.1-0.1,0.2-0.1,0.3c0,0,0,0,0,0
	c-0.1,0.3-0.1,0.5-0.2,0.8c0,0.1,0,0.1,0,0.2c0,0.1,0,0.2-0.1,0.3c-0.6,3-0.5,5.4-0.5,5.4c0,2.5,0.3,4.8,0.8,6.8
	c0.5,2,1.3,3.7,2.2,5.1c1,1.4,2.2,2.4,3.6,3.1c1.4,0.7,3.1,1.1,4.9,1.1c2.9,0,5.1-0.9,6.8-2.9c1.8-2,3.1-5.2,3.9-9.7l1-5.4
	c0.3-1.5,0.7-2.6,1.2-3.2c0.6-0.7,1.4-1,2.3-1c1.2,0,2.1,0.5,2.7,1.4c0.6,0.9,0.8,2.1,0.8,3.9c0,2.1-0.4,3.7-1.3,4.8
	c-0.7,0.9-1.8,1.6-3,1.9v10.9c1.6-0.2,3.2-0.6,4.5-1.2c1.5-0.7,2.9-1.7,3.9-3.1c1.1-1.4,1.9-3.1,2.5-5.1c0.6-2.1,0.9-4.6,0.9-7.4
	c0-5.6-1.1-9.8-3.2-12.6c-2.1-2.8-5-4.2-8.8-4.2C24.9,374.2,23.6,374.4,22.4,374.9L22.4,374.9z"/>
<path fill="currentColor" d="M27.8,325.4c0.8,0.2,1.4,0.5,1.9,0.9c0.7,0.6,1.1,1.5,1.1,2.6c0,1.4-0.6,2.5-1.7,3.2c-1,0.7-2.6,1-4.9,1
	c-2.2,0-3.7-0.3-4.8-0.9c-1.1-0.7-1.7-1.8-1.7-3.2c0-1.1,0.3-2,1-2.5c0.5-0.4,1-0.7,1.7-0.8v-9.5c0,0-1.8,0.1-3.9,1
	c-1.2,0.5-2.3,1.3-3.3,2.3c-0.9,1-1.7,2.3-2.3,3.8c-0.6,1.6-0.9,3.6-0.9,5.8c0,4.5,1.2,8,3.7,10.5c2.5,2.5,6,3.8,10.5,3.8
	c2,0,3.9-0.3,5.6-0.9c1.7-0.6,3.1-1.4,4.3-2.6c1.2-1.2,2.1-2.6,2.8-4.4c0.7-1.8,1-3.9,1-6.4c0-2.3-0.3-4.2-0.9-5.8
	c-0.6-1.6-1.3-2.9-2.3-4c-1-1-2.2-1.9-3.6-2.5c-1.2-0.5-2.4-0.8-3.7-1.1V325.4L27.8,325.4z"/>
<path fill="currentColor" d="M12.7,170.7c-1.6,1.8-2.5,5.3-2.5,9.5c0,12.1,6.6,12.6,9.2,12.9v-8.8c-1.8-0.4-2.8-1.6-2.8-3.4
	c0-2.1,1.1-3.2,3.2-3.2h1.6l0.1,1c0.3,2.9,0.9,7.7,2.4,11.1c1.4,3.2,3.4,4.5,6.6,4.5c4.8,0,7.6-2.9,7.6-7.7c0-3.7-1-6-3.3-7.9
	l-1.5-1.2l4.1-0.5v-8.7H20.7C16.5,168.2,14.2,168.9,12.7,170.7L12.7,170.7z M27,177.7c3,0,4.9,1.8,4.9,4.6c0,1.9-1.3,2.7-2.5,2.7
	c-1.4,0-2-0.8-2.3-1.4c-0.5-1.1-1-3-1.2-4.9l-0.1-0.9H27z"/>
<path fill="currentColor" d="M28.2,236.5c1,1.1,1.4,2.5,1.4,4.2c0,0.9-0.1,1.8-0.4,2.6c-0.3,0.9-0.9,1.7-1.7,2.4
	c-0.8,0.7-1.9,1.2-3.2,1.6c-1.3,0.4-3,0.5-5,0.6c-2,0-3.7-0.2-5-0.6c-1.3-0.4-2.4-0.9-3.2-1.6c-0.8-0.7-1.4-1.5-1.7-2.4
	c-0.3-0.9-0.4-1.7-0.4-2.6c0-1.7,0.5-3.1,1.4-4.2c0.8-0.9,2-1.6,3.6-1.9v-11c-1.8,0.2-3.4,0.6-5,1.2c-1.7,0.7-3.3,1.8-4.6,3.2
	c-1.3,1.4-2.3,3.2-3.1,5.3c-0.8,2.1-1.1,4.7-1.1,7.6c0,3.3,0.5,6.1,1.4,8.4c0.9,2.3,2.2,4.2,3.8,5.7c1.6,1.5,3.6,2.6,5.8,3.3
	c2.3,0.7,4.8,1.1,7.6,1.1c0.1,0,0.3,0,0.4,0c0.1,0,0.3,0,0.4,0c2.7,0,5.3-0.4,7.6-1.1c2.2-0.7,4.2-1.8,5.8-3.3
	c1.6-1.5,2.9-3.4,3.8-5.7c0.9-2.3,1.4-5.2,1.4-8.4c0-2.9-0.4-5.5-1.1-7.6c-0.7-2.1-1.8-3.9-3.1-5.3c-1.3-1.4-2.8-2.5-4.6-3.2
	c-1.5-0.6-3.2-1.1-5-1.2v11C26.1,235,27.4,235.6,28.2,236.5z"/>
<path fill="currentColor" d="M50.6,127h34.2v18.1c0,4.8-0.4,7.8-1.1,9.5c-1.2,2.7-3.9,4.3-7.1,4.3c-3.6,0-5.8-1.6-7.3-5.5l-0.9-2.2
	l-0.5,2.3c-0.9,4.4-3.5,6.5-7.8,6.5c-3.1,0-5.9-1.4-7.6-3.9c-1.4-2-1.9-4.9-1.9-10.4L50.6,127z M64.3,144.3v-6.3h-5.9v6.3
	c0,3,0.9,4.3,3,4.3C64,148.5,64.3,146.1,64.3,144.3 M77.1,144.3v-6.4h-5.4v6.3c0,1.5,0.3,3.6,2.8,3.6
	C76.2,147.8,77.1,146.6,77.1,144.3 M49.9,126.2v19.4c0,5.4,0.5,8.6,2.1,10.8c1.8,2.6,4.7,4.2,8.2,4.2c4.6,0,7.5-2.4,8.5-7.1
	c1.8,4.4,4.4,6,8,6c3.6,0,6.5-1.9,7.7-4.8c0.9-1.9,1.2-5.3,1.2-9.8v-18.8L49.9,126.2z M63.6,144.3c0,2.6-0.7,3.5-2.2,3.5
	c-1.3,0-2.3-0.5-2.3-3.5v-5.5h4.4V144.3z M76.4,144.3c0,2-0.7,2.8-1.9,2.8c-1.3,0-2.1-0.6-2.1-2.8v-5.6h4V144.3L76.4,144.3z"/>
<path fill="currentColor" d="M50.7,162.4h25.2v9.8h-5.7l2.4,1.4c2.3,1.4,3.7,3.7,3.7,6.3c0,0.6,0,0.9-0.2,1.5h-8.2
	c0.2-0.8,0.3-1.5,0.3-2.5c0-2.1-0.6-3.7-1.8-4.8c-1.3-1.2-2.9-1.4-5.8-1.4h-10V162.4z M49.9,161.6v11.8h10.7c2.8,0,4.2,0.2,5.3,1.2
	c1.1,1,1.6,2.5,1.6,4.2c0,1.2-0.1,1.9-0.7,3.2h9.8c0.3-1,0.3-1.5,0.3-2.2c0-3.1-1.8-5.6-4-7h3.7v-11.3H49.9z"/>
<path fill="currentColor" d="M50.6,218.4l25.2-8.4v11l-2.3,0.5c-4.3,1-8.8,2-13.2,3l-3.7,0.8l3.7,0.7c4.5,0.8,7.6,1.6,12.9,2.9
	c0.8,0.2,1.7,0.4,2.6,0.6V240l-25.2-8.1L50.6,218.4 M49.9,217.9v14.5l26.7,8.6v-12c-7.2-1.8-10.8-2.7-16.1-3.7
	c5.4-1.2,10.7-2.4,16.1-3.6V209L49.9,217.9z"/>
<path fill="currentColor" d="M50,253.8c0-9.3,4.8-14.4,13.4-14.4c8.1,0,13.4,5.4,13.4,13.7c0,9.2-5.1,13.9-15.1,14.1v-17.6l-0.8,0.1
	c-3.9,0.3-4.3,3-4.3,4.2c0,1,0.4,2.8,2.6,3.5l-2.6,8.8C52.3,263.6,50,259.4,50,253.8z M70.7,253.8c0-1.3-0.5-3.5-3.7-4.1l-0.8-0.1
	v8.2l0.8-0.1C69.4,257.3,70.7,255.9,70.7,253.8z M49.3,253.8c0,7,3.2,11.1,7.9,13.5l3.1-10.4c-2.1-0.4-2.8-1.7-2.8-3
	c0-1.4,0.6-3.2,3.6-3.4V268c10.3,0,16.5-4.7,16.5-14.9c0-8.6-5.5-14.5-14.1-14.5C54.5,238.7,49.3,244,49.3,253.8z M66.9,250.5
	c2.3,0.4,3.1,1.7,3.1,3.3c0,1.5-0.9,2.8-3.1,3.1V250.5z"/>
<path fill="currentColor" d="M50.6,274.1h34.2v18.1c0,4.8-0.4,7.8-1.1,9.5c-1.2,2.7-3.9,4.3-7.1,4.3c-3.6,0-5.8-1.6-7.3-5.5l-0.9-2.2
	l-0.5,2.3c-0.9,4.4-3.5,6.5-7.8,6.5c-3.1,0-5.9-1.4-7.6-3.9c-1.4-2-1.9-4.9-1.9-10.4L50.6,274.1z M64.3,291.4V285h-5.9v6.3
	c0,3,0.9,4.3,3,4.3C64,295.6,64.3,293.2,64.3,291.4 M77,291.4V285h-5.4v6.3c0,1.5,0.3,3.6,2.8,3.6C76.1,295,77,293.8,77,291.4z
	 M49.9,273.4v19.4c0,5.4,0.5,8.6,2.1,10.8c1.8,2.6,4.7,4.2,8.2,4.2c4.6,0,7.5-2.4,8.5-7.1c1.8,4.4,4.4,6,8,6c3.6,0,6.5-1.9,7.7-4.8
	c0.9-1.9,1.2-5.3,1.2-9.8v-18.8H49.9z M63.6,291.4c0,2.6-0.7,3.5-2.2,3.5c-1.3,0-2.3-0.5-2.3-3.5v-5.5h4.4V291.4z M76.3,291.4
	c0,2-0.7,2.8-1.9,2.8c-1.3,0-2.1-0.6-2.1-2.8v-5.6h4V291.4z"/>
<path fill="currentColor" d="M50.6,309.5h24.6v10.1H50.6V309.5z M79.2,309.5h5.6v10.1h-5.6V309.5z M49.9,308.7v11.6h26v-11.6H49.9z
	 M78.5,308.7v11.6h7.1v-11.6H78.5z"/>
<path fill="currentColor" d="M50,333.6c0-4.7,1.6-9.1,4.3-12.1l5.1,4.7c-2,1.7-3.3,4.3-3.3,7c0,2.5,1.4,2.7,1.8,2.7
	c1.3,0,1.9-1.1,2.2-2.2l1.4-4.1c1.5-4.7,3.8-6.9,7.2-6.9c5.2,0,8,4.3,8,12c0,4.2-1.3,8.2-3.6,11l-5-4.5c1.7-1.7,2.8-3.9,2.8-5.9
	c0-2.2-1-2.6-1.9-2.6c-1.3,0-1.7,1.1-2.4,3.3l-1.2,3.6c-1.5,4.3-3.8,6.4-7,6.4C53.4,345.8,50,340.9,50,333.6 M49.3,333.6
	c0,7.4,3.4,13,9.2,13c3.5,0,6.1-2.3,7.6-6.9l1.2-3.6c0.8-2.2,1-2.8,1.8-2.8c0.7,0,1.2,0.4,1.2,1.9c0,1.8-1,4.1-3.1,5.9l6.1,5.6
	c2.7-3,4.3-7.4,4.3-12.1c0-9.2-3.9-12.8-8.7-12.8c-4.1,0-6.4,2.9-7.9,7.4l-1.4,4.1c-0.5,1.4-0.9,1.7-1.5,1.7c-0.6,0-1.1-0.5-1.1-1.9
	c0-2.6,1.3-5.3,3.7-6.9l-6.3-5.8C51,323.8,49.3,328.8,49.3,333.6L49.3,333.6z"/>
<path fill="currentColor" d="M50,361.4c0-9.1,4.8-14.3,13.2-14.3s13.6,5.6,13.6,14.7c0,9-4.9,14-13.8,14c-3.8,0-6.9-1.2-9.2-3.5
	C51.4,369.6,50,365.8,50,361.4 M69.8,361.5c0-1.6-0.8-4.3-6.1-4.3c-2,0-6.6,0.4-6.6,4.3c0,3.3,3.4,4,6.3,4
	C67.6,365.5,69.8,364.2,69.8,361.5z M49.3,361.4c0,7.9,4.3,15.1,13.8,15.1c9.2,0,14.5-5.3,14.5-14.7c0-9.4-5.4-15.4-14.4-15.4
	C54.3,346.3,49.3,352,49.3,361.4L49.3,361.4z M69.1,361.5c0,1.9-1.5,3.2-5.7,3.2c-4,0-5.5-1.2-5.5-3.2c0-2.1,1.7-3.5,5.9-3.5
	C67.6,358,69.1,359.5,69.1,361.5z"/>
<path fill="currentColor" d="M50.6,378.2h25.2v9.7h-4.4l1.3,1.3c2.4,2.3,3.4,4.8,3.4,8.1c0,3.3-1.1,5.4-3.5,6.5c-1.7,0.8-4.2,0.9-6.2,0.9
	H50.7l0-10h13.5c1.3,0,2.2-0.2,2.8-0.5c0.9-0.5,1.3-1.3,1.3-2.6c0-1.2-0.4-2.1-1.3-2.7c-1-0.7-2.6-0.7-3.5-0.7H50.6L50.6,378.2
	 M49.9,377.4v11.5h13.5c1.3,0,2.4,0.2,3.1,0.6c0.7,0.5,1,1.2,1,2.1c0,0.9-0.2,1.6-0.9,1.9c-0.5,0.3-1.4,0.4-2.4,0.4H49.9l0,11.5
	h16.6c2.6,0,4.9-0.2,6.5-1c2.5-1.2,3.9-3.5,3.9-7.1c0-3.8-1.3-6.4-3.6-8.7h3.3v-11.2H49.9L49.9,377.4z"/>
<path fill="currentColor" d="M50,188.3c0-3.8,1.8-6.3,4.7-6.3c3.5,0,6.6,3.4,9.2,10.1l1.8,5.3c-3.3-5.4-5.9-6.6-7.5-6.6
	c-2.3,0-3.5,1.8-3.5,3.4c0,1.2,0.5,2.8,1.5,4C52.2,195.9,50,192.5,50,188.3z M50.1,203.6c0-2.1,0.8-3.3,4.9-3.3c0.6,0,1,0,1.3,0.1
	l0.8,0.1v-1.2c0.2,0.2,0.4,0.3,0.6,0.4l0.2,0.1l0.2,0l7.8,0.1l1.3,0l0,0c6.1,0,8.2-2.9,8.2-5.5c0-0.3,0-0.5,0-0.8
	c0.3,0.7,0.6,1.4,0.7,2.1c0.5,1.9,0.8,3.6,0.8,4.6c0,3.3-0.6,5.6-1.9,6.8c-1.1,1.1-2.8,1.6-5.5,1.6c-1.2,0-2.5-0.1-3.9-0.2l-9.1-0.5
	l0,0h-1.9l0.4,1.1l1,2.3C51.6,207.7,50.1,206,50.1,203.6z M64.9,182c3.2,1.9,5.7,4.1,7.5,6.6c0.6,0.9,1.2,1.7,1.7,2.6
	c-0.7-0.5-1.5-0.8-2.6-0.8c-1.3,0-2.7,0.3-4.4,0.9L64.9,182 M49.3,188.3c0,4.9,2.7,8.6,7.1,11v0.3c-0.4-0.1-0.8-0.1-1.5-0.1
	c-4.1,0-5.6,1.1-5.6,4c0,2.9,1.9,4.9,6.4,8.7l1.6,1.3l0.3-0.2l-1.9-4.5h0.8l9.1,0.5c1.4,0.1,2.7,0.2,3.9,0.2c5.2,0,8.1-1.7,8.1-9.2
	c0-1-0.3-2.7-0.8-4.8c-0.6-2.2-1.9-4.7-3.8-7.5c-2-2.8-4.9-5.3-8.8-7.4l-0.3,0.2l2.7,11.2c1.9-0.7,3.5-1.1,4.9-1.1
	c2.2,0,3.2,1.4,3.2,3.4c0,2.7-2.6,4.8-7.6,4.8l-2.5-7.4c-2.5-6.4-5.7-10.6-9.9-10.6C51.4,181.3,49.3,184.2,49.3,188.3L49.3,188.3z
	 M65.9,199.2l-7.8-0.1c-1.8-1.2-2.7-3.4-2.7-4.8c0-1.3,0.9-2.7,2.8-2.7C60.4,191.6,63.1,194.3,65.9,199.2z"/>
<path fill="currentColor" d="M43.3,0l0,405.6h0.8V0L43.3,0z" />
</svg>
