<svg version="1.1" xmlns="http://www.w3.org/2000/svg" 
	 viewBox="0 0 32 32" xml:space="preserve">
<g id="Layer_2_1_">
	<link  href="" id="dark-mode" rel="stylesheet" type="text/css" xmlns=""></link>
	<path fill="#CF142B" d="M15.6,0.1c3.2-0.2,7.7,1.1,11.1,4l0,0c0.2,0.1,0.3,0.2,0.4,0.4l0,0l0,0l0,0c0.2,0.1,0.3,0.3,0.4,0.4l0,0
		l0,0l0,0c5.2,5.1,6.2,15.4,0.4,21.7l0,0c-0.1,0.2-0.2,0.3-0.4,0.4l0,0l0,0l0,0c-0.1,0.2-0.3,0.3-0.4,0.4l0,0l0,0l0,0
		c-0.1,0.1-0.3,0.4-0.4,0.4l0,0c-6.2,5.3-14.5,5.6-21.3,0l0,0c-0.2-0.1-0.3-0.2-0.4-0.4l0,0l0,0l0,0c-0.2-0.1-0.3-0.3-0.4-0.4l0,0
		l0,0l0,0c-5.4-5.2-6.2-16,0-22.1l0,0l0,0C4.7,4.7,4.9,4.6,5,4.5l0,0l0,0l0,0c0.1-0.1,0.3-0.4,0.4-0.4l0,0
		C8.2,1.7,11.9,0.2,15.6,0.1z"/>
	<path fill="#FEFEFE" d="M19.2,19.3c4.1,0,8.3,0,12.5,0c-0.5,2.8-1.9,5.4-3.7,7.5l0,0c-0.1,0.2-0.2,0.3-0.4,0.4l0,0l0,0l0,0
		c-0.1,0.2-0.3,0.3-0.4,0.4l0,0l0,0l0,0c-0.1,0.1-0.3,0.4-0.4,0.4l0,0c-2.3,1.9-4.3,3-7.5,3.7C19.2,27.7,19.2,23.5,19.2,19.3z"/>
	<path fill="#FEFEFE" d="M0.4,19.3c4.1,0,8.2,0,12.5,0c0,4.1,0,8.3,0,12.5C10,31.2,7.6,30,5.5,28.1l0,0c-0.2-0.1-0.3-0.2-0.4-0.4
		l0,0l0,0l0,0c-0.2-0.1-0.3-0.3-0.4-0.4l0,0l0,0l0,0C2.4,25,0.9,22.2,0.4,19.3z"/>
	<path fill="#FEFEFE" d="M19.2,0.4c2.6,0.5,5.4,1.9,7.5,3.7l0,0c0.2,0.1,0.3,0.2,0.4,0.4l0,0l0,0l0,0c0.2,0.1,0.3,0.3,0.4,0.4l0,0
		l0,0l0,0c2.1,2.2,3.5,4.9,4.1,7.9c-4.1,0-8.3,0-12.5,0C19.2,8.8,19.2,4.7,19.2,0.4z"/>
	<path fill="#FEFEFE" d="M12.8,0.4c0,4.1,0,8.2,0,12.5c-4.1,0-8.2,0-12.5,0C1,9.8,2.3,7.2,4.4,5l0,0l0,0c0.1-0.2,0.3-0.3,0.4-0.4
		l0,0l0,0l0,0c0.1-0.1,0.3-0.4,0.4-0.4l0,0C7.8,2.2,9.4,1.3,12.8,0.4z"/>
	<path fill="#00247D" d="M21.4,21.8c2.6,1.2,5.1,2.5,7.6,3.8c-0.3,0.5-0.6,0.8-1,1.2l0,0c-0.1,0.2-0.2,0.3-0.4,0.4l0,0l0,0l0,0
		c-0.1,0.2-0.3,0.3-0.4,0.4l0,0l0,0l0,0c-0.1,0.1-0.3,0.4-0.4,0.4l0,0c-1.6,1.4-3.4,2.5-5.3,3.1C21.4,28.1,21.4,25,21.4,21.8z"/>
	<path fill="#00247D" d="M21.4,1c2,0.6,3.8,1.8,5.3,3.1l0,0c0.2,0.1,0.3,0.2,0.4,0.4l0,0l0,0l0,0c0.2,0.1,0.3,0.3,0.4,0.4l0,0l0,0
		l0,0c0.5,0.5,1,1,1.3,1.6c-2.5,1.3-5.1,2.6-7.6,3.8C21.4,7.3,21.4,4.2,21.4,1z"/>
	<path fill="#00247D" d="M10.7,21.8c0,3.1,0,6.2,0,9.5c-2-0.7-3.8-1.8-5.3-3.1l0,0C5.2,28.1,5.1,28,5,27.8l0,0l0,0l0,0
		c-0.2-0.1-0.3-0.3-0.4-0.4l0,0l0,0l0,0c-0.5-0.5-1-1.1-1.3-1.6C5.6,24.2,8.2,23,10.7,21.8z"/>
	<path fill="#00247D" d="M10.7,1c0,3.1,0,6.2,0,9.5C8.2,9.3,5.7,8,3.1,6.7C3.5,6.1,4,5.5,4.5,5.1l0,0l0,0c0.1-0.2,0.3-0.3,0.4-0.4
		l0,0l0,0l0,0C5,4.6,5.2,4.3,5.3,4.3l0,0C6.9,2.8,8.8,1.7,10.7,1z"/>
	<path fill="#CF142B" d="M5.4,21.4c1.2,0,2.3,0,3.5,0c-2.1,1.1-4.3,2.1-6.4,3.2c-0.3-0.4-0.6-0.9-0.8-1.4C2.9,22.6,4.2,22,5.4,21.4z
		"/>
	<path fill="#CF142B" d="M29.6,7.6C29.9,8,30.2,8.5,30.4,9c-2.3,1.4-4.5,2.3-7.2,1.8C25.3,9.7,27.5,8.5,29.6,7.6z"/>
	<path fill="#CF142B" d="M26.7,21.4c1.4,0.1,3-0.4,4.3,0.4c-0.1,0.5-0.4,1-0.6,1.5C29.1,22.7,27.9,22,26.7,21.4L26.7,21.4z"/>
	<path fill="#CF142B" d="M1.7,9c1.2,0.6,2.4,1.2,3.6,1.8l0,0c-1.4-0.1-3,0.4-4.3-0.4C1.3,9.9,1.5,9.4,1.7,9z"/>
</g>
</svg>
